<?xml version="1.0" encoding="UTF-8" standalone="no"?><svg xmlns="http://www.w3.org/2000/svg" xmlns:xlink="http://www.w3.org/1999/xlink" clip-rule="evenodd" stroke-miterlimit="10" viewBox="0 0 1024 768"><desc>SVG generated by Keynote</desc><defs></defs><g transform="matrix(1.00, 0.00, -0.00, -1.00, 0.0, 768.0)"><path d="M 0.0 768.0 L 1024.0 768.0 L 1024.0 0.0 L 0.0 0.0 Z M 0.0 768.0 " fill="#F1F1F1"></path><text xml:space="preserve" font-family="AvenirNext-UltraLight,Avenir Next" font-size="65.5" fill="#514F4D" transform="matrix(1.00, 0.00, -0.00, -1.00, 107.1, 480.0)">S</text><text xml:space="preserve" font-family="AvenirNext-UltraLight,Avenir Next" font-size="65.5" fill="#514F4D" transform="matrix(1.00, 0.00, -0.00, -1.00, 144.4, 480.0)">w</text><text xml:space="preserve" font-family="AvenirNext-UltraLight,Avenir Next" font-size="65.5" fill="#514F4D" transform="matrix(1.00, 0.00, -0.00, -1.00, 190.1, 480.0)">i</text><text xml:space="preserve" font-family="AvenirNext-UltraLight,Avenir Next" font-size="65.5" fill="#514F4D" transform="matrix(1.00, 0.00, -0.00, -1.00, 204.9, 480.0)">f</text><text xml:space="preserve" font-family="AvenirNext-UltraLight,Avenir Next" font-size="65.5" fill="#514F4D" transform="matrix(1.00, 0.00, -0.00, -1.00, 221.8, 480.0)">t</text><text xml:space="preserve" font-family="AvenirNext-UltraLight,Avenir Next" font-size="65.5" fill="#514F4D" transform="matrix(1.00, 0.00, -0.00, -1.00, 241.8, 480.0)"> </text><text xml:space="preserve" font-family="AvenirNext-UltraLight,Avenir Next" font-size="65.5" fill="#514F4D" transform="matrix(1.00, 0.00, -0.00, -1.00, 258.1, 480.0)">p</text><text xml:space="preserve" font-family="AvenirNext-UltraLight,Avenir Next" font-size="65.5" fill="#514F4D" transform="matrix(1.00, 0.00, -0.00, -1.00, 299.2, 480.0)">r</text><text xml:space="preserve" font-family="AvenirNext-UltraLight,Avenir Next" font-size="65.5" fill="#514F4D" transform="matrix(1.00, 0.00, -0.00, -1.00, 318.7, 480.0)">o</text><text xml:space="preserve" font-family="AvenirNext-UltraLight,Avenir Next" font-size="65.5" fill="#514F4D" transform="matrix(1.00, 0.00, -0.00, -1.00, 358.4, 480.0)">g</text><text xml:space="preserve" font-family="AvenirNext-UltraLight,Avenir Next" font-size="65.5" fill="#514F4D" transform="matrix(1.00, 0.00, -0.00, -1.00, 399.4, 480.0)">r</text><text xml:space="preserve" font-family="AvenirNext-UltraLight,Avenir Next" font-size="65.5" fill="#514F4D" transform="matrix(1.00, 0.00, -0.00, -1.00, 419.4, 480.0)">a</text><text xml:space="preserve" font-family="AvenirNext-UltraLight,Avenir Next" font-size="65.5" fill="#514F4D" transform="matrix(1.00, 0.00, -0.00, -1.00, 452.9, 480.0)">m</text><text xml:space="preserve" font-family="AvenirNext-UltraLight,Avenir Next" font-size="65.5" fill="#514F4D" transform="matrix(1.00, 0.00, -0.00, -1.00, 511.2, 480.0)">m</text><text xml:space="preserve" font-family="AvenirNext-UltraLight,Avenir Next" font-size="65.5" fill="#514F4D" transform="matrix(1.00, 0.00, -0.00, -1.00, 569.4, 480.0)">i</text><text xml:space="preserve" font-family="AvenirNext-UltraLight,Avenir Next" font-size="65.5" fill="#514F4D" transform="matrix(1.00, 0.00, -0.00, -1.00, 584.2, 480.0)">n</text><text xml:space="preserve" font-family="AvenirNext-UltraLight,Avenir Next" font-size="65.5" fill="#514F4D" transform="matrix(1.00, 0.00, -0.00, -1.00, 621.7, 480.0)">g</text><text xml:space="preserve" font-family="AvenirNext-UltraLight,Avenir Next" font-size="65.5" fill="#514F4D" transform="matrix(1.00, 0.00, -0.00, -1.00, 662.7, 480.0)"> </text><text xml:space="preserve" font-family="AvenirNext-UltraLight,Avenir Next" font-size="65.5" fill="#514F4D" transform="matrix(1.00, 0.00, -0.00, -1.00, 679.1, 480.0)">l</text><text xml:space="preserve" font-family="AvenirNext-UltraLight,Avenir Next" font-size="65.5" fill="#514F4D" transform="matrix(1.00, 0.00, -0.00, -1.00, 693.9, 480.0)">a</text><text xml:space="preserve" font-family="AvenirNext-UltraLight,Avenir Next" font-size="65.5" fill="#514F4D" transform="matrix(1.00, 0.00, -0.00, -1.00, 727.5, 480.0)">n</text><text xml:space="preserve" font-family="AvenirNext-UltraLight,Avenir Next" font-size="65.5" fill="#514F4D" transform="matrix(1.00, 0.00, -0.00, -1.00, 764.9, 480.0)">g</text><text xml:space="preserve" font-family="AvenirNext-UltraLight,Avenir Next" font-size="65.5" fill="#514F4D" transform="matrix(1.00, 0.00, -0.00, -1.00, 806.0, 480.0)">a</text><text xml:space="preserve" font-family="AvenirNext-UltraLight,Avenir Next" font-size="65.5" fill="#514F4D" transform="matrix(1.00, 0.00, -0.00, -1.00, 839.5, 480.0)">g</text><text xml:space="preserve" font-family="AvenirNext-UltraLight,Avenir Next" font-size="65.5" fill="#514F4D" transform="matrix(1.00, 0.00, -0.00, -1.00, 880.5, 480.0)">e</text><text xml:space="preserve" font-family="AvenirNext-UltraLight,Avenir Next" font-size="65.5" fill="#514F4D" transform="matrix(1.00, 0.00, -0.00, -1.00, 916.9, 480.0)"> </text><text xml:space="preserve" font-family="AvenirNext-UltraLight,Avenir Next" font-size="65.5" fill="#514F4D" transform="matrix(1.00, 0.00, -0.00, -1.00, 228.6, 390.0)">G</text><text xml:space="preserve" font-family="AvenirNext-UltraLight,Avenir Next" font-size="65.5" fill="#514F4D" transform="matrix(1.00, 0.00, -0.00, -1.00, 280.7, 390.0)">e</text><text xml:space="preserve" font-family="AvenirNext-UltraLight,Avenir Next" font-size="65.5" fill="#514F4D" transform="matrix(1.00, 0.00, -0.00, -1.00, 317.1, 390.0)">n</text><text xml:space="preserve" font-family="AvenirNext-UltraLight,Avenir Next" font-size="65.5" fill="#514F4D" transform="matrix(1.00, 0.00, -0.00, -1.00, 354.6, 390.0)">t</text><text xml:space="preserve" font-family="AvenirNext-UltraLight,Avenir Next" font-size="65.5" fill="#514F4D" transform="matrix(1.00, 0.00, -0.00, -1.00, 374.5, 390.0)">l</text><text xml:space="preserve" font-family="AvenirNext-UltraLight,Avenir Next" font-size="65.5" fill="#514F4D" transform="matrix(1.00, 0.00, -0.00, -1.00, 389.3, 390.0)">e</text><text xml:space="preserve" font-family="AvenirNext-UltraLight,Avenir Next" font-size="65.5" fill="#514F4D" transform="matrix(1.00, 0.00, -0.00, -1.00, 425.8, 390.0)"> </text><text xml:space="preserve" font-family="AvenirNext-UltraLight,Avenir Next" font-size="65.5" fill="#514F4D" transform="matrix(1.00, 0.00, -0.00, -1.00, 442.2, 390.0)">i</text><text xml:space="preserve" font-family="AvenirNext-UltraLight,Avenir Next" font-size="65.5" fill="#514F4D" transform="matrix(1.00, 0.00, -0.00, -1.00, 457.0, 390.0)">n</text><text xml:space="preserve" font-family="AvenirNext-UltraLight,Avenir Next" font-size="65.5" fill="#514F4D" transform="matrix(1.00, 0.00, -0.00, -1.00, 494.4, 390.0)">t</text><text xml:space="preserve" font-family="AvenirNext-UltraLight,Avenir Next" font-size="65.5" fill="#514F4D" transform="matrix(1.00, 0.00, -0.00, -1.00, 514.4, 390.0)">r</text><text xml:space="preserve" font-family="AvenirNext-UltraLight,Avenir Next" font-size="65.5" fill="#514F4D" transform="matrix(1.00, 0.00, -0.00, -1.00, 533.9, 390.0)">o</text><text xml:space="preserve" font-family="AvenirNext-UltraLight,Avenir Next" font-size="65.5" fill="#514F4D" transform="matrix(1.00, 0.00, -0.00, -1.00, 573.6, 390.0)">d</text><text xml:space="preserve" font-family="AvenirNext-UltraLight,Avenir Next" font-size="65.5" fill="#514F4D" transform="matrix(1.00, 0.00, -0.00, -1.00, 614.6, 390.0)">u</text><text xml:space="preserve" font-family="AvenirNext-UltraLight,Avenir Next" font-size="65.5" fill="#514F4D" transform="matrix(1.00, 0.00, -0.00, -1.00, 652.1, 390.0)">c</text><text xml:space="preserve" font-family="AvenirNext-UltraLight,Avenir Next" font-size="65.5" fill="#514F4D" transform="matrix(1.00, 0.00, -0.00, -1.00, 683.5, 390.0)">t</text><text xml:space="preserve" font-family="AvenirNext-UltraLight,Avenir Next" font-size="65.5" fill="#514F4D" transform="matrix(1.00, 0.00, -0.00, -1.00, 703.4, 390.0)">i</text><text xml:space="preserve" font-family="AvenirNext-UltraLight,Avenir Next" font-size="65.5" fill="#514F4D" transform="matrix(1.00, 0.00, -0.00, -1.00, 718.3, 390.0)">o</text><text xml:space="preserve" font-family="AvenirNext-UltraLight,Avenir Next" font-size="65.5" fill="#514F4D" transform="matrix(1.00, 0.00, -0.00, -1.00, 757.9, 390.0)">n</text><text xml:space="preserve" font-family="AvenirNext-Regular,Avenir Next" font-size="36.0" fill="#514F4D" transform="matrix(1.00, 0.00, -0.00, -1.00, 396.8, 136.2)">B</text><text xml:space="preserve" font-family="AvenirNext-Regular,Avenir Next" font-size="36.0" fill="#514F4D" transform="matrix(1.00, 0.00, -0.00, -1.00, 419.7, 136.2)">o</text><text xml:space="preserve" font-family="AvenirNext-Regular,Avenir Next" font-size="36.0" fill="#514F4D" transform="matrix(1.00, 0.00, -0.00, -1.00, 441.7, 136.2)">r</text><text xml:space="preserve" font-family="AvenirNext-Regular,Avenir Next" font-size="36.0" fill="#514F4D" transform="matrix(1.00, 0.00, -0.00, -1.00, 454.6, 136.2)">i</text><text xml:space="preserve" font-family="AvenirNext-Regular,Avenir Next" font-size="36.0" fill="#514F4D" transform="matrix(1.00, 0.00, -0.00, -1.00, 463.6, 136.2)">s</text><text xml:space="preserve" font-family="AvenirNext-Regular,Avenir Next" font-size="36.0" fill="#514F4D" transform="matrix(1.00, 0.00, -0.00, -1.00, 479.6, 136.2)"> </text><text xml:space="preserve" font-family="AvenirNext-Regular,Avenir Next" font-size="36.0" fill="#514F4D" transform="matrix(1.00, 0.00, -0.00, -1.00, 488.6, 136.2)">M</text><text xml:space="preserve" font-family="AvenirNext-Regular,Avenir Next" font-size="36.0" fill="#514F4D" transform="matrix(1.00, 0.00, -0.00, -1.00, 520.5, 136.2)">u</text><text xml:space="preserve" font-family="AvenirNext-Regular,Avenir Next" font-size="36.0" fill="#514F4D" transform="matrix(1.00, 0.00, -0.00, -1.00, 541.4, 136.2)">s</text><text xml:space="preserve" font-family="AvenirNext-Regular,Avenir Next" font-size="36.0" fill="#514F4D" transform="matrix(1.00, 0.00, -0.00, -1.00, 557.4, 136.2)">a</text><text xml:space="preserve" font-family="AvenirNext-Regular,Avenir Next" font-size="36.0" fill="#514F4D" transform="matrix(1.00, 0.00, -0.00, -1.00, 576.3, 136.2)">t</text><text xml:space="preserve" font-family="AvenirNext-Regular,Avenir Next" font-size="36.0" fill="#514F4D" transform="matrix(1.00, 0.00, -0.00, -1.00, 587.7, 136.2)">o</text><text xml:space="preserve" font-family="AvenirNext-Regular,Avenir Next" font-size="36.0" fill="#514F4D" transform="matrix(1.00, 0.00, -0.00, -1.00, 609.7, 136.2)">v</text></g></svg>