<?xml version="1.0" encoding="UTF-8" standalone="no"?><svg xmlns="http://www.w3.org/2000/svg" xmlns:xlink="http://www.w3.org/1999/xlink" clip-rule="evenodd" stroke-miterlimit="10" viewBox="0 0 341 113"><desc>SVG generated by Keynote</desc><defs></defs><g transform="matrix(1.00, 0.00, -0.00, -1.00, 0.0, 113.0)"><g><clipPath id="clip0x600000aaf060"><path d="M 0.3 0.1 L 340.4 0.1 L 340.4 112.8 L 0.3 112.8 Z M 0.3 0.1 "></path></clipPath><g clip-path="url(#clip0x600000aaf060)"><path d="M 171.0 111.8 L 161.0 101.0 L 6.3 101.0 C 3.5 101.0 1.0 98.8 1.0 96.1 L 1.0 6.1 C 1.0 3.3 3.5 1.0 6.3 1.0 L 334.4 1.0 C 337.2 1.0 339.0 3.3 339.0 6.1 L 339.0 96.1 C 339.0 98.8 337.2 101.0 334.4 101.0 L 181.0 101.0 L 171.0 111.8 Z M 171.0 111.8 " fill="#F9DC7E"></path></g></g><g><clipPath id="clip0x600000aaf600"><path d="M 20.1 27.9 L 320.6 27.9 L 320.6 85.0 L 20.1 85.0 Z M 20.1 27.9 "></path></clipPath><g clip-path="url(#clip0x600000aaf600)"><text xml:space="preserve" font-family="AvenirNext-Regular,Avenir Next" font-size="28.0" fill="#514F4D" transform="matrix(1.00, 0.00, -0.00, -1.00, 30.1, 47.7)">T</text><text xml:space="preserve" font-family="AvenirNext-Regular,Avenir Next" font-size="28.0" fill="#514F4D" transform="matrix(1.00, 0.00, -0.00, -1.00, 43.4, 47.7)">o</text><text xml:space="preserve" font-family="AvenirNext-Regular,Avenir Next" font-size="28.0" fill="#514F4D" transform="matrix(1.00, 0.00, -0.00, -1.00, 60.5, 47.7)"> </text><text xml:space="preserve" font-family="AvenirNext-Regular,Avenir Next" font-size="28.0" fill="#514F4D" transform="matrix(1.00, 0.00, -0.00, -1.00, 67.5, 47.7)">a</text><text xml:space="preserve" font-family="AvenirNext-Regular,Avenir Next" font-size="28.0" fill="#514F4D" transform="matrix(1.00, 0.00, -0.00, -1.00, 82.5, 47.7)">v</text><text xml:space="preserve" font-family="AvenirNext-Regular,Avenir Next" font-size="28.0" fill="#514F4D" transform="matrix(1.00, 0.00, -0.00, -1.00, 96.1, 47.7)">o</text><text xml:space="preserve" font-family="AvenirNext-Regular,Avenir Next" font-size="28.0" fill="#514F4D" transform="matrix(1.00, 0.00, -0.00, -1.00, 113.2, 47.7)">i</text><text xml:space="preserve" font-family="AvenirNext-Regular,Avenir Next" font-size="28.0" fill="#514F4D" transform="matrix(1.00, 0.00, -0.00, -1.00, 120.2, 47.7)">d</text><text xml:space="preserve" font-family="AvenirNext-Regular,Avenir Next" font-size="28.0" fill="#514F4D" transform="matrix(1.00, 0.00, -0.00, -1.00, 138.1, 47.7)"> </text><text xml:space="preserve" font-family="AvenirNext-Regular,Avenir Next" font-size="28.0" fill="#514F4D" transform="matrix(1.00, 0.00, -0.00, -1.00, 145.1, 47.7)">m</text><text xml:space="preserve" font-family="AvenirNext-Regular,Avenir Next" font-size="28.0" fill="#514F4D" transform="matrix(1.00, 0.00, -0.00, -1.00, 169.8, 47.7)">e</text><text xml:space="preserve" font-family="AvenirNext-Regular,Avenir Next" font-size="28.0" fill="#514F4D" transform="matrix(1.00, 0.00, -0.00, -1.00, 185.8, 47.7)">m</text><text xml:space="preserve" font-family="AvenirNext-Regular,Avenir Next" font-size="28.0" fill="#514F4D" transform="matrix(1.00, 0.00, -0.00, -1.00, 210.5, 47.7)">o</text><text xml:space="preserve" font-family="AvenirNext-Regular,Avenir Next" font-size="28.0" fill="#514F4D" transform="matrix(1.00, 0.00, -0.00, -1.00, 227.6, 47.7)">r</text><text xml:space="preserve" font-family="AvenirNext-Regular,Avenir Next" font-size="28.0" fill="#514F4D" transform="matrix(1.00, 0.00, -0.00, -1.00, 237.7, 47.7)">y</text><text xml:space="preserve" font-family="AvenirNext-Regular,Avenir Next" font-size="28.0" fill="#514F4D" transform="matrix(1.00, 0.00, -0.00, -1.00, 251.4, 47.7)"> </text><text xml:space="preserve" font-family="AvenirNext-Regular,Avenir Next" font-size="28.0" fill="#514F4D" transform="matrix(1.00, 0.00, -0.00, -1.00, 258.4, 47.7)">l</text><text xml:space="preserve" font-family="AvenirNext-Regular,Avenir Next" font-size="28.0" fill="#514F4D" transform="matrix(1.00, 0.00, -0.00, -1.00, 265.4, 47.7)">e</text><text xml:space="preserve" font-family="AvenirNext-Regular,Avenir Next" font-size="28.0" fill="#514F4D" transform="matrix(1.00, 0.00, -0.00, -1.00, 281.3, 47.7)">a</text><text xml:space="preserve" font-family="AvenirNext-Regular,Avenir Next" font-size="28.0" fill="#514F4D" transform="matrix(1.00, 0.00, -0.00, -1.00, 296.2, 47.7)">k</text></g></g></g></svg>