<?xml version="1.0" encoding="UTF-8" standalone="no"?><svg xmlns="http://www.w3.org/2000/svg" xmlns:xlink="http://www.w3.org/1999/xlink" clip-rule="evenodd" stroke-miterlimit="10" viewBox="0 0 1024 768"><desc>SVG generated by Keynote</desc><defs></defs><g transform="matrix(1.00, 0.00, -0.00, -1.00, 0.0, 768.0)"><path d="M 0.0 768.0 L 1024.0 768.0 L 1024.0 0.0 L 0.0 0.0 Z M 0.0 768.0 " fill="#F1F1F1"></path><text xml:space="preserve" font-family="AvenirNext-UltraLight,Avenir Next" font-size="72.0" fill="#514F4D" transform="matrix(1.00, 0.00, -0.00, -1.00, 371.0, 677.8)">G</text><text xml:space="preserve" font-family="AvenirNext-UltraLight,Avenir Next" font-size="72.0" fill="#514F4D" transform="matrix(1.00, 0.00, -0.00, -1.00, 428.2, 677.8)">e</text><text xml:space="preserve" font-family="AvenirNext-UltraLight,Avenir Next" font-size="72.0" fill="#514F4D" transform="matrix(1.00, 0.00, -0.00, -1.00, 468.3, 677.8)">n</text><text xml:space="preserve" font-family="AvenirNext-UltraLight,Avenir Next" font-size="72.0" fill="#514F4D" transform="matrix(1.00, 0.00, -0.00, -1.00, 509.4, 677.8)">e</text><text xml:space="preserve" font-family="AvenirNext-UltraLight,Avenir Next" font-size="72.0" fill="#514F4D" transform="matrix(1.00, 0.00, -0.00, -1.00, 549.5, 677.8)">r</text><text xml:space="preserve" font-family="AvenirNext-UltraLight,Avenir Next" font-size="72.0" fill="#514F4D" transform="matrix(1.00, 0.00, -0.00, -1.00, 572.3, 677.8)">i</text><text xml:space="preserve" font-family="AvenirNext-UltraLight,Avenir Next" font-size="72.0" fill="#514F4D" transform="matrix(1.00, 0.00, -0.00, -1.00, 588.6, 677.8)">c</text><text xml:space="preserve" font-family="AvenirNext-UltraLight,Avenir Next" font-size="72.0" fill="#514F4D" transform="matrix(1.00, 0.00, -0.00, -1.00, 623.1, 677.8)">s</text><image xlink:href="36D76B988AF7EF3AF929D8188C80DF82.png" width="884.00" height="122.00" transform="matrix(0.79, 0.00, -0.00, -0.79, 162.0, 619.9)"></image></g></svg>