<?xml version="1.0" encoding="UTF-8" standalone="no"?><svg xmlns="http://www.w3.org/2000/svg" xmlns:xlink="http://www.w3.org/1999/xlink" clip-rule="evenodd" stroke-miterlimit="10" viewBox="0 0 259 59"><desc>SVG generated by Keynote</desc><defs></defs><g transform="matrix(1.00, 0.00, -0.00, -1.00, 0.0, 59.0)"><text xml:space="preserve" font-family="AvenirNext-UltraLight,Avenir Next" font-size="72.0" fill="#514F4D" transform="matrix(1.00, 0.00, -0.00, -1.00, -6.5, 3.4)">I</text><text xml:space="preserve" font-family="AvenirNext-UltraLight,Avenir Next" font-size="72.0" fill="#514F4D" transform="matrix(1.00, 0.00, -0.00, -1.00, 10.4, 3.4)">n</text><text xml:space="preserve" font-family="AvenirNext-UltraLight,Avenir Next" font-size="72.0" fill="#514F4D" transform="matrix(1.00, 0.00, -0.00, -1.00, 51.5, 3.4)">t</text><text xml:space="preserve" font-family="AvenirNext-UltraLight,Avenir Next" font-size="72.0" fill="#514F4D" transform="matrix(1.00, 0.00, -0.00, -1.00, 73.4, 3.4)">e</text><text xml:space="preserve" font-family="AvenirNext-UltraLight,Avenir Next" font-size="72.0" fill="#514F4D" transform="matrix(1.00, 0.00, -0.00, -1.00, 113.5, 3.4)">r</text><text xml:space="preserve" font-family="AvenirNext-UltraLight,Avenir Next" font-size="72.0" fill="#514F4D" transform="matrix(1.00, 0.00, -0.00, -1.00, 136.3, 3.4)">n</text><text xml:space="preserve" font-family="AvenirNext-UltraLight,Avenir Next" font-size="72.0" fill="#514F4D" transform="matrix(1.00, 0.00, -0.00, -1.00, 177.5, 3.4)">a</text><text xml:space="preserve" font-family="AvenirNext-UltraLight,Avenir Next" font-size="72.0" fill="#514F4D" transform="matrix(1.00, 0.00, -0.00, -1.00, 214.3, 3.4)">l</text><text xml:space="preserve" font-family="AvenirNext-UltraLight,Avenir Next" font-size="72.0" fill="#514F4D" transform="matrix(1.00, 0.00, -0.00, -1.00, 230.6, 3.4)">s</text></g></svg>