<?xml version="1.0" encoding="UTF-8" standalone="no"?><svg xmlns="http://www.w3.org/2000/svg" xmlns:xlink="http://www.w3.org/1999/xlink" clip-rule="evenodd" stroke-miterlimit="10" viewBox="0 0 1024 768"><desc>SVG generated by Keynote</desc><defs></defs><g transform="matrix(1.00, 0.00, -0.00, -1.00, 0.0, 768.0)"><path d="M 0.0 768.0 L 1024.0 768.0 L 1024.0 0.0 L 0.0 0.0 Z M 0.0 768.0 " fill="#F1F1F1"></path><text xml:space="preserve" font-family="AvenirNext-UltraLight,Avenir Next" font-size="72.0" fill="#514F4D" transform="matrix(1.00, 0.00, -0.00, -1.00, 378.5, 663.4)">I</text><text xml:space="preserve" font-family="AvenirNext-UltraLight,Avenir Next" font-size="72.0" fill="#514F4D" transform="matrix(1.00, 0.00, -0.00, -1.00, 395.4, 663.4)">n</text><text xml:space="preserve" font-family="AvenirNext-UltraLight,Avenir Next" font-size="72.0" fill="#514F4D" transform="matrix(1.00, 0.00, -0.00, -1.00, 436.5, 663.4)">t</text><text xml:space="preserve" font-family="AvenirNext-UltraLight,Avenir Next" font-size="72.0" fill="#514F4D" transform="matrix(1.00, 0.00, -0.00, -1.00, 458.4, 663.4)">e</text><text xml:space="preserve" font-family="AvenirNext-UltraLight,Avenir Next" font-size="72.0" fill="#514F4D" transform="matrix(1.00, 0.00, -0.00, -1.00, 498.5, 663.4)">r</text><text xml:space="preserve" font-family="AvenirNext-UltraLight,Avenir Next" font-size="72.0" fill="#514F4D" transform="matrix(1.00, 0.00, -0.00, -1.00, 521.3, 663.4)">n</text><text xml:space="preserve" font-family="AvenirNext-UltraLight,Avenir Next" font-size="72.0" fill="#514F4D" transform="matrix(1.00, 0.00, -0.00, -1.00, 562.5, 663.4)">a</text><text xml:space="preserve" font-family="AvenirNext-UltraLight,Avenir Next" font-size="72.0" fill="#514F4D" transform="matrix(1.00, 0.00, -0.00, -1.00, 599.3, 663.4)">l</text><text xml:space="preserve" font-family="AvenirNext-UltraLight,Avenir Next" font-size="72.0" fill="#514F4D" transform="matrix(1.00, 0.00, -0.00, -1.00, 615.6, 663.4)">s</text><image xlink:href="../../0DDDEAF1-8D02-4622-A695-0DDD95EB7C39/assets/6DCDE4053F783C8558B0929F30E8F4C4.png" width="922.00" height="376.00" transform="matrix(1.00, 0.00, -0.00, -1.00, 51.0, 603.4)"></image><path d="M 69.0 474.0 L 361.0 474.0 L 361.0 374.0 L 69.0 374.0 Z M 69.4 474.0 " fill="#F9DC7E"></path><g><clipPath id="clip0x6080006b8000"><path d="M 62.5 374.0 L 367.6 374.0 L 367.6 474.0 L 62.5 474.0 Z M 62.5 374.0 "></path></clipPath><g clip-path="url(#clip0x6080006b8000)"><text xml:space="preserve" font-family="AvenirNext-Regular,Avenir Next" font-size="32.0" fill="#282A2E" transform="matrix(1.00, 0.00, -0.00, -1.00, 113.5, 413.7)">S</text><text xml:space="preserve" font-family="AvenirNext-Regular,Avenir Next" font-size="32.0" fill="#282A2E" transform="matrix(1.00, 0.00, -0.00, -1.00, 131.6, 413.7)">w</text><text xml:space="preserve" font-family="AvenirNext-Regular,Avenir Next" font-size="32.0" fill="#282A2E" transform="matrix(1.00, 0.00, -0.00, -1.00, 155.4, 413.7)">i</text><text xml:space="preserve" font-family="AvenirNext-Regular,Avenir Next" font-size="32.0" fill="#282A2E" transform="matrix(1.00, 0.00, -0.00, -1.00, 163.4, 413.7)">f</text><text xml:space="preserve" font-family="AvenirNext-Regular,Avenir Next" font-size="32.0" fill="#282A2E" transform="matrix(1.00, 0.00, -0.00, -1.00, 172.5, 413.7)">t</text><text xml:space="preserve" font-family="AvenirNext-Regular,Avenir Next" font-size="32.0" fill="#282A2E" transform="matrix(1.00, 0.00, -0.00, -1.00, 182.6, 413.7)"> </text><text xml:space="preserve" font-family="AvenirNext-Regular,Avenir Next" font-size="32.0" fill="#282A2E" transform="matrix(1.00, 0.00, -0.00, -1.00, 190.6, 413.7)">f</text><text xml:space="preserve" font-family="AvenirNext-Regular,Avenir Next" font-size="32.0" fill="#282A2E" transform="matrix(1.00, 0.00, -0.00, -1.00, 200.1, 413.7)">r</text><text xml:space="preserve" font-family="AvenirNext-Regular,Avenir Next" font-size="32.0" fill="#282A2E" transform="matrix(1.00, 0.00, -0.00, -1.00, 211.0, 413.7)">o</text><text xml:space="preserve" font-family="AvenirNext-Regular,Avenir Next" font-size="32.0" fill="#282A2E" transform="matrix(1.00, 0.00, -0.00, -1.00, 230.6, 413.7)">n</text><text xml:space="preserve" font-family="AvenirNext-Regular,Avenir Next" font-size="32.0" fill="#282A2E" transform="matrix(1.00, 0.00, -0.00, -1.00, 249.2, 413.7)">t</text><text xml:space="preserve" font-family="AvenirNext-Regular,Avenir Next" font-size="32.0" fill="#282A2E" transform="matrix(1.00, 0.00, -0.00, -1.00, 259.3, 413.7)">e</text><text xml:space="preserve" font-family="AvenirNext-Regular,Avenir Next" font-size="32.0" fill="#282A2E" transform="matrix(1.00, 0.00, -0.00, -1.00, 277.6, 413.7)">n</text><text xml:space="preserve" font-family="AvenirNext-Regular,Avenir Next" font-size="32.0" fill="#282A2E" transform="matrix(1.00, 0.00, -0.00, -1.00, 296.2, 413.7)">d</text></g></g></g></svg>