<?xml version="1.0" encoding="UTF-8" standalone="no"?><svg xmlns="http://www.w3.org/2000/svg" xmlns:xlink="http://www.w3.org/1999/xlink" clip-rule="evenodd" stroke-miterlimit="10" viewBox="0 0 1024 768"><desc>SVG generated by Keynote</desc><defs></defs><g transform="matrix(1.00, 0.00, -0.00, -1.00, 0.0, 768.0)"><path d="M 0.0 768.0 L 1024.0 768.0 L 1024.0 0.0 L 0.0 0.0 Z M 0.0 768.0 " fill="#F1F1F1"></path><text xml:space="preserve" font-family="AvenirNext-UltraLight,Avenir Next" font-size="72.0" fill="#514F4D" transform="matrix(1.00, 0.00, -0.00, -1.00, 322.0, 678.4)">H</text><text xml:space="preserve" font-family="AvenirNext-UltraLight,Avenir Next" font-size="72.0" fill="#514F4D" transform="matrix(1.00, 0.00, -0.00, -1.00, 374.7, 678.4)">e</text><text xml:space="preserve" font-family="AvenirNext-UltraLight,Avenir Next" font-size="72.0" fill="#514F4D" transform="matrix(1.00, 0.00, -0.00, -1.00, 414.8, 678.4)">l</text><text xml:space="preserve" font-family="AvenirNext-UltraLight,Avenir Next" font-size="72.0" fill="#514F4D" transform="matrix(1.00, 0.00, -0.00, -1.00, 431.0, 678.4)">l</text><text xml:space="preserve" font-family="AvenirNext-UltraLight,Avenir Next" font-size="72.0" fill="#514F4D" transform="matrix(1.00, 0.00, -0.00, -1.00, 447.3, 678.4)">o</text><text xml:space="preserve" font-family="AvenirNext-UltraLight,Avenir Next" font-size="72.0" fill="#514F4D" transform="matrix(1.00, 0.00, -0.00, -1.00, 490.9, 678.4)"> </text><text xml:space="preserve" font-family="AvenirNext-UltraLight,Avenir Next" font-size="72.0" fill="#514F4D" transform="matrix(1.00, 0.00, -0.00, -1.00, 508.0, 678.4)">W</text><text xml:space="preserve" font-family="AvenirNext-UltraLight,Avenir Next" font-size="72.0" fill="#514F4D" transform="matrix(1.00, 0.00, -0.00, -1.00, 574.2, 678.4)">o</text><text xml:space="preserve" font-family="AvenirNext-UltraLight,Avenir Next" font-size="72.0" fill="#514F4D" transform="matrix(1.00, 0.00, -0.00, -1.00, 617.8, 678.4)">r</text><text xml:space="preserve" font-family="AvenirNext-UltraLight,Avenir Next" font-size="72.0" fill="#514F4D" transform="matrix(1.00, 0.00, -0.00, -1.00, 640.6, 678.4)">l</text><text xml:space="preserve" font-family="AvenirNext-UltraLight,Avenir Next" font-size="72.0" fill="#514F4D" transform="matrix(1.00, 0.00, -0.00, -1.00, 656.9, 678.4)">d</text><image xlink:href="A9FC75619D1F298074C968B8F8AF7FE0.png" width="740.00" height="482.00" transform="matrix(1.00, 0.00, -0.00, -1.00, 142.0, 625.0)"></image></g></svg>