<?xml version="1.0" encoding="UTF-8" standalone="no"?><svg xmlns="http://www.w3.org/2000/svg" xmlns:xlink="http://www.w3.org/1999/xlink" clip-rule="evenodd" stroke-miterlimit="10" viewBox="0 0 423 46"><desc>SVG generated by Keynote</desc><defs></defs><g transform="matrix(1.00, 0.00, -0.00, -1.00, 0.0, 46.0)"><text xml:space="preserve" font-family="AvenirNext-Regular,Avenir Next" font-size="42.0" fill="#514F4D" transform="matrix(1.00, 0.00, -0.00, -1.00, 0.5, 11.9)">S</text><text xml:space="preserve" font-family="AvenirNext-Regular,Avenir Next" font-size="42.0" fill="#514F4D" transform="matrix(1.00, 0.00, -0.00, -1.00, 23.9, 11.9)">t</text><text xml:space="preserve" font-family="AvenirNext-Regular,Avenir Next" font-size="42.0" fill="#514F4D" transform="matrix(1.00, 0.00, -0.00, -1.00, 37.2, 11.9)">a</text><text xml:space="preserve" font-family="AvenirNext-Regular,Avenir Next" font-size="42.0" fill="#514F4D" transform="matrix(1.00, 0.00, -0.00, -1.00, 59.2, 11.9)">t</text><text xml:space="preserve" font-family="AvenirNext-Regular,Avenir Next" font-size="42.0" fill="#514F4D" transform="matrix(1.00, 0.00, -0.00, -1.00, 72.6, 11.9)">i</text><text xml:space="preserve" font-family="AvenirNext-Regular,Avenir Next" font-size="42.0" fill="#514F4D" transform="matrix(1.00, 0.00, -0.00, -1.00, 83.1, 11.9)">c</text><text xml:space="preserve" font-family="AvenirNext-Regular,Avenir Next" font-size="42.0" fill="#514F4D" transform="matrix(1.00, 0.00, -0.00, -1.00, 104.1, 11.9)"> </text><text xml:space="preserve" font-family="AvenirNext-Regular,Avenir Next" font-size="42.0" fill="#514F4D" transform="matrix(1.00, 0.00, -0.00, -1.00, 114.6, 11.9)">t</text><text xml:space="preserve" font-family="AvenirNext-Regular,Avenir Next" font-size="42.0" fill="#514F4D" transform="matrix(1.00, 0.00, -0.00, -1.00, 127.9, 11.9)">y</text><text xml:space="preserve" font-family="AvenirNext-Regular,Avenir Next" font-size="42.0" fill="#514F4D" transform="matrix(1.00, 0.00, -0.00, -1.00, 148.4, 11.9)">p</text><text xml:space="preserve" font-family="AvenirNext-Regular,Avenir Next" font-size="42.0" fill="#514F4D" transform="matrix(1.00, 0.00, -0.00, -1.00, 175.0, 11.9)">i</text><text xml:space="preserve" font-family="AvenirNext-Regular,Avenir Next" font-size="42.0" fill="#514F4D" transform="matrix(1.00, 0.00, -0.00, -1.00, 185.5, 11.9)">n</text><text xml:space="preserve" font-family="AvenirNext-Regular,Avenir Next" font-size="42.0" fill="#514F4D" transform="matrix(1.00, 0.00, -0.00, -1.00, 209.9, 11.9)">g</text><text xml:space="preserve" font-family="AvenirNext-Regular,Avenir Next" font-size="42.0" fill="#514F4D" transform="matrix(1.00, 0.00, -0.00, -1.00, 236.5, 11.9)"> </text><text xml:space="preserve" font-family="AvenirNext-Regular,Avenir Next" font-size="42.0" fill="#514F4D" transform="matrix(1.00, 0.00, -0.00, -1.00, 247.0, 11.9)">f</text><text xml:space="preserve" font-family="AvenirNext-Regular,Avenir Next" font-size="42.0" fill="#514F4D" transform="matrix(1.00, 0.00, -0.00, -1.00, 259.4, 11.9)">o</text><text xml:space="preserve" font-family="AvenirNext-Regular,Avenir Next" font-size="42.0" fill="#514F4D" transform="matrix(1.00, 0.00, -0.00, -1.00, 285.0, 11.9)">r</text><text xml:space="preserve" font-family="AvenirNext-Regular,Avenir Next" font-size="42.0" fill="#514F4D" transform="matrix(1.00, 0.00, -0.00, -1.00, 300.2, 11.9)"> </text><text xml:space="preserve" font-family="AvenirNext-Regular,Avenir Next" font-size="42.0" fill="#514F4D" transform="matrix(1.00, 0.00, -0.00, -1.00, 310.7, 11.9)">s</text><text xml:space="preserve" font-family="AvenirNext-Regular,Avenir Next" font-size="42.0" fill="#514F4D" transform="matrix(1.00, 0.00, -0.00, -1.00, 329.3, 11.9)">a</text><text xml:space="preserve" font-family="AvenirNext-Regular,Avenir Next" font-size="42.0" fill="#514F4D" transform="matrix(1.00, 0.00, -0.00, -1.00, 351.7, 11.9)">f</text><text xml:space="preserve" font-family="AvenirNext-Regular,Avenir Next" font-size="42.0" fill="#514F4D" transform="matrix(1.00, 0.00, -0.00, -1.00, 364.1, 11.9)">e</text><text xml:space="preserve" font-family="AvenirNext-Regular,Avenir Next" font-size="42.0" fill="#514F4D" transform="matrix(1.00, 0.00, -0.00, -1.00, 388.1, 11.9)">t</text><text xml:space="preserve" font-family="AvenirNext-Regular,Avenir Next" font-size="42.0" fill="#514F4D" transform="matrix(1.00, 0.00, -0.00, -1.00, 401.5, 11.9)">y</text></g></svg>