<?xml version="1.0" encoding="UTF-8" standalone="no"?><svg xmlns="http://www.w3.org/2000/svg" xmlns:xlink="http://www.w3.org/1999/xlink" clip-rule="evenodd" stroke-miterlimit="10" viewBox="0 0 683 46"><desc>SVG generated by Keynote</desc><defs></defs><g transform="matrix(1.00, 0.00, -0.00, -1.00, 0.0, 46.0)"><text xml:space="preserve" font-family="AvenirNext-Regular,Avenir Next" font-size="42.0" fill="#514F4D" transform="matrix(1.00, 0.00, -0.00, -1.00, -1.5, 12.3)">H</text><text xml:space="preserve" font-family="AvenirNext-Regular,Avenir Next" font-size="42.0" fill="#514F4D" transform="matrix(1.00, 0.00, -0.00, -1.00, 28.6, 12.3)">i</text><text xml:space="preserve" font-family="AvenirNext-Regular,Avenir Next" font-size="42.0" fill="#514F4D" transform="matrix(1.00, 0.00, -0.00, -1.00, 39.1, 12.3)">g</text><text xml:space="preserve" font-family="AvenirNext-Regular,Avenir Next" font-size="42.0" fill="#514F4D" transform="matrix(1.00, 0.00, -0.00, -1.00, 65.7, 12.3)">h</text><text xml:space="preserve" font-family="AvenirNext-Regular,Avenir Next" font-size="42.0" fill="#514F4D" transform="matrix(1.00, 0.00, -0.00, -1.00, 90.2, 12.3)">e</text><text xml:space="preserve" font-family="AvenirNext-Regular,Avenir Next" font-size="42.0" fill="#514F4D" transform="matrix(1.00, 0.00, -0.00, -1.00, 114.2, 12.3)">r</text><text xml:space="preserve" font-family="AvenirNext-Regular,Avenir Next" font-size="42.0" fill="#514F4D" transform="matrix(1.00, 0.00, -0.00, -1.00, 129.3, 12.3)"> </text><text xml:space="preserve" font-family="AvenirNext-Regular,Avenir Next" font-size="42.0" fill="#514F4D" transform="matrix(1.00, 0.00, -0.00, -1.00, 139.8, 12.3)">o</text><text xml:space="preserve" font-family="AvenirNext-Regular,Avenir Next" font-size="42.0" fill="#514F4D" transform="matrix(1.00, 0.00, -0.00, -1.00, 165.5, 12.3)">r</text><text xml:space="preserve" font-family="AvenirNext-Regular,Avenir Next" font-size="42.0" fill="#514F4D" transform="matrix(1.00, 0.00, -0.00, -1.00, 179.8, 12.3)">d</text><text xml:space="preserve" font-family="AvenirNext-Regular,Avenir Next" font-size="42.0" fill="#514F4D" transform="matrix(1.00, 0.00, -0.00, -1.00, 206.6, 12.3)">e</text><text xml:space="preserve" font-family="AvenirNext-Regular,Avenir Next" font-size="42.0" fill="#514F4D" transform="matrix(1.00, 0.00, -0.00, -1.00, 230.6, 12.3)">r</text><text xml:space="preserve" font-family="AvenirNext-Regular,Avenir Next" font-size="42.0" fill="#514F4D" transform="matrix(1.00, 0.00, -0.00, -1.00, 245.7, 12.3)"> </text><text xml:space="preserve" font-family="AvenirNext-Regular,Avenir Next" font-size="42.0" fill="#514F4D" transform="matrix(1.00, 0.00, -0.00, -1.00, 256.2, 12.3)">f</text><text xml:space="preserve" font-family="AvenirNext-Regular,Avenir Next" font-size="42.0" fill="#514F4D" transform="matrix(1.00, 0.00, -0.00, -1.00, 268.6, 12.3)">u</text><text xml:space="preserve" font-family="AvenirNext-Regular,Avenir Next" font-size="42.0" fill="#514F4D" transform="matrix(1.00, 0.00, -0.00, -1.00, 293.0, 12.3)">n</text><text xml:space="preserve" font-family="AvenirNext-Regular,Avenir Next" font-size="42.0" fill="#514F4D" transform="matrix(1.00, 0.00, -0.00, -1.00, 317.4, 12.3)">c</text><text xml:space="preserve" font-family="AvenirNext-Regular,Avenir Next" font-size="42.0" fill="#514F4D" transform="matrix(1.00, 0.00, -0.00, -1.00, 338.4, 12.3)">t</text><text xml:space="preserve" font-family="AvenirNext-Regular,Avenir Next" font-size="42.0" fill="#514F4D" transform="matrix(1.00, 0.00, -0.00, -1.00, 351.7, 12.3)">i</text><text xml:space="preserve" font-family="AvenirNext-Regular,Avenir Next" font-size="42.0" fill="#514F4D" transform="matrix(1.00, 0.00, -0.00, -1.00, 362.2, 12.3)">o</text><text xml:space="preserve" font-family="AvenirNext-Regular,Avenir Next" font-size="42.0" fill="#514F4D" transform="matrix(1.00, 0.00, -0.00, -1.00, 387.9, 12.3)">n</text><text xml:space="preserve" font-family="AvenirNext-Regular,Avenir Next" font-size="42.0" fill="#514F4D" transform="matrix(1.00, 0.00, -0.00, -1.00, 412.3, 12.3)">s</text><text xml:space="preserve" font-family="AvenirNext-Regular,Avenir Next" font-size="42.0" fill="#514F4D" transform="matrix(1.00, 0.00, -0.00, -1.00, 431.0, 12.3)"> </text><text xml:space="preserve" font-family="AvenirNext-Regular,Avenir Next" font-size="42.0" fill="#514F4D" transform="matrix(1.00, 0.00, -0.00, -1.00, 441.5, 12.3)">a</text><text xml:space="preserve" font-family="AvenirNext-Regular,Avenir Next" font-size="42.0" fill="#514F4D" transform="matrix(1.00, 0.00, -0.00, -1.00, 463.9, 12.3)">n</text><text xml:space="preserve" font-family="AvenirNext-Regular,Avenir Next" font-size="42.0" fill="#514F4D" transform="matrix(1.00, 0.00, -0.00, -1.00, 488.3, 12.3)">d</text><text xml:space="preserve" font-family="AvenirNext-Regular,Avenir Next" font-size="42.0" fill="#514F4D" transform="matrix(1.00, 0.00, -0.00, -1.00, 515.0, 12.3)"> </text><text xml:space="preserve" font-family="AvenirNext-Regular,Avenir Next" font-size="42.0" fill="#514F4D" transform="matrix(1.00, 0.00, -0.00, -1.00, 525.5, 12.3)">c</text><text xml:space="preserve" font-family="AvenirNext-Regular,Avenir Next" font-size="42.0" fill="#514F4D" transform="matrix(1.00, 0.00, -0.00, -1.00, 546.5, 12.3)">l</text><text xml:space="preserve" font-family="AvenirNext-Regular,Avenir Next" font-size="42.0" fill="#514F4D" transform="matrix(1.00, 0.00, -0.00, -1.00, 557.1, 12.3)">o</text><text xml:space="preserve" font-family="AvenirNext-Regular,Avenir Next" font-size="42.0" fill="#514F4D" transform="matrix(1.00, 0.00, -0.00, -1.00, 582.8, 12.3)">s</text><text xml:space="preserve" font-family="AvenirNext-Regular,Avenir Next" font-size="42.0" fill="#514F4D" transform="matrix(1.00, 0.00, -0.00, -1.00, 601.4, 12.3)">u</text><text xml:space="preserve" font-family="AvenirNext-Regular,Avenir Next" font-size="42.0" fill="#514F4D" transform="matrix(1.00, 0.00, -0.00, -1.00, 625.8, 12.3)">r</text><text xml:space="preserve" font-family="AvenirNext-Regular,Avenir Next" font-size="42.0" fill="#514F4D" transform="matrix(1.00, 0.00, -0.00, -1.00, 640.2, 12.3)">e</text><text xml:space="preserve" font-family="AvenirNext-Regular,Avenir Next" font-size="42.0" fill="#514F4D" transform="matrix(1.00, 0.00, -0.00, -1.00, 664.2, 12.3)">s</text></g></svg>