<?xml version="1.0" encoding="UTF-8" standalone="no"?><svg xmlns="http://www.w3.org/2000/svg" xmlns:xlink="http://www.w3.org/1999/xlink" clip-rule="evenodd" stroke-miterlimit="10" viewBox="0 0 1024 768"><desc>SVG generated by Keynote</desc><defs></defs><g transform="matrix(1.00, 0.00, -0.00, -1.00, 0.0, 768.0)"><path d="M 0.0 768.0 L 1024.0 768.0 L 1024.0 0.0 L 0.0 0.0 Z M 0.0 768.0 " fill="#F1F1F1"></path><text xml:space="preserve" font-family="AvenirNext-UltraLight,Avenir Next" font-size="72.0" fill="#514F4D" transform="matrix(1.00, 0.00, -0.00, -1.00, 370.2, 678.4)">T</text><text xml:space="preserve" font-family="AvenirNext-UltraLight,Avenir Next" font-size="72.0" fill="#514F4D" transform="matrix(1.00, 0.00, -0.00, -1.00, 402.2, 678.4)">y</text><text xml:space="preserve" font-family="AvenirNext-UltraLight,Avenir Next" font-size="72.0" fill="#514F4D" transform="matrix(1.00, 0.00, -0.00, -1.00, 433.0, 678.4)">p</text><text xml:space="preserve" font-family="AvenirNext-UltraLight,Avenir Next" font-size="72.0" fill="#514F4D" transform="matrix(1.00, 0.00, -0.00, -1.00, 478.1, 678.4)">e</text><text xml:space="preserve" font-family="AvenirNext-UltraLight,Avenir Next" font-size="72.0" fill="#514F4D" transform="matrix(1.00, 0.00, -0.00, -1.00, 517.7, 678.4)">a</text><text xml:space="preserve" font-family="AvenirNext-UltraLight,Avenir Next" font-size="72.0" fill="#514F4D" transform="matrix(1.00, 0.00, -0.00, -1.00, 554.5, 678.4)">l</text><text xml:space="preserve" font-family="AvenirNext-UltraLight,Avenir Next" font-size="72.0" fill="#514F4D" transform="matrix(1.00, 0.00, -0.00, -1.00, 570.8, 678.4)">i</text><text xml:space="preserve" font-family="AvenirNext-UltraLight,Avenir Next" font-size="72.0" fill="#514F4D" transform="matrix(1.00, 0.00, -0.00, -1.00, 587.1, 678.4)">a</text><text xml:space="preserve" font-family="AvenirNext-UltraLight,Avenir Next" font-size="72.0" fill="#514F4D" transform="matrix(1.00, 0.00, -0.00, -1.00, 623.9, 678.4)">s</text><image xlink:href="../../73DAF049-5FF1-42CD-9B88-C478D97DB8AF/assets/1CFA244486522A626431F70DC325D430.png" width="1254.00" height="44.00" transform="matrix(0.66, 0.00, -0.00, -0.66, 58.4, 627.1)"></image><image xlink:href="../../8961C57A-0E29-464B-9C3F-F5DD4099B271/assets/415141DFAFC7885CD3F7B61D92639CDF.png" width="1236.00" height="124.00" transform="matrix(0.67, 0.00, -0.00, -0.67, 58.4, 626.3)"></image></g></svg>