<?xml version="1.0" encoding="UTF-8" standalone="no"?><svg xmlns="http://www.w3.org/2000/svg" xmlns:xlink="http://www.w3.org/1999/xlink" clip-rule="evenodd" stroke-miterlimit="10" viewBox="0 0 1024 768"><desc>SVG generated by Keynote</desc><defs></defs><g transform="matrix(1.00, 0.00, -0.00, -1.00, 0.0, 768.0)"><path d="M 0.0 768.0 L 1024.0 768.0 L 1024.0 0.0 L 0.0 0.0 Z M 0.0 768.0 " fill="#F1F1F1"></path><text xml:space="preserve" font-family="AvenirNext-UltraLight,Avenir Next" font-size="72.0" fill="#514F4D" transform="matrix(1.00, 0.00, -0.00, -1.00, 288.7, 662.4)">R</text><text xml:space="preserve" font-family="AvenirNext-UltraLight,Avenir Next" font-size="72.0" fill="#514F4D" transform="matrix(1.00, 0.00, -0.00, -1.00, 330.6, 662.4)">e</text><text xml:space="preserve" font-family="AvenirNext-UltraLight,Avenir Next" font-size="72.0" fill="#514F4D" transform="matrix(1.00, 0.00, -0.00, -1.00, 370.7, 662.4)">s</text><text xml:space="preserve" font-family="AvenirNext-UltraLight,Avenir Next" font-size="72.0" fill="#514F4D" transform="matrix(1.00, 0.00, -0.00, -1.00, 400.5, 662.4)">o</text><text xml:space="preserve" font-family="AvenirNext-UltraLight,Avenir Next" font-size="72.0" fill="#514F4D" transform="matrix(1.00, 0.00, -0.00, -1.00, 444.1, 662.4)">u</text><text xml:space="preserve" font-family="AvenirNext-UltraLight,Avenir Next" font-size="72.0" fill="#514F4D" transform="matrix(1.00, 0.00, -0.00, -1.00, 485.3, 662.4)">r</text><text xml:space="preserve" font-family="AvenirNext-UltraLight,Avenir Next" font-size="72.0" fill="#514F4D" transform="matrix(1.00, 0.00, -0.00, -1.00, 506.8, 662.4)">c</text><text xml:space="preserve" font-family="AvenirNext-UltraLight,Avenir Next" font-size="72.0" fill="#514F4D" transform="matrix(1.00, 0.00, -0.00, -1.00, 541.4, 662.4)">e</text><text xml:space="preserve" font-family="AvenirNext-UltraLight,Avenir Next" font-size="72.0" fill="#514F4D" transform="matrix(1.00, 0.00, -0.00, -1.00, 581.4, 662.4)">s</text><g><clipPath id="clip0x6080008af060"><path d="M 23.1 554.2 L 294.8 554.2 L 294.8 639.8 L 23.1 639.8 Z M 23.1 554.2 "></path></clipPath><g clip-path="url(#clip0x6080008af060)"><text xml:space="preserve" font-family="AvenirNext-Regular,Avenir Next" font-size="42.0" fill="#514F4D" transform="matrix(1.00, 0.00, -0.00, -1.00, 37.9, 583.9)">H</text><text xml:space="preserve" font-family="AvenirNext-Regular,Avenir Next" font-size="42.0" fill="#514F4D" transform="matrix(1.00, 0.00, -0.00, -1.00, 68.1, 583.9)">o</text><text xml:space="preserve" font-family="AvenirNext-Regular,Avenir Next" font-size="42.0" fill="#514F4D" transform="matrix(1.00, 0.00, -0.00, -1.00, 93.7, 583.9)">w</text><text xml:space="preserve" font-family="AvenirNext-Regular,Avenir Next" font-size="42.0" fill="#514F4D" transform="matrix(1.00, 0.00, -0.00, -1.00, 125.0, 583.9)"> </text><text xml:space="preserve" font-family="AvenirNext-Regular,Avenir Next" font-size="42.0" fill="#514F4D" transform="matrix(1.00, 0.00, -0.00, -1.00, 135.5, 583.9)">t</text><text xml:space="preserve" font-family="AvenirNext-Regular,Avenir Next" font-size="42.0" fill="#514F4D" transform="matrix(1.00, 0.00, -0.00, -1.00, 148.9, 583.9)">o</text><text xml:space="preserve" font-family="AvenirNext-Regular,Avenir Next" font-size="42.0" fill="#514F4D" transform="matrix(1.00, 0.00, -0.00, -1.00, 174.5, 583.9)"> </text><text xml:space="preserve" font-family="AvenirNext-Regular,Avenir Next" font-size="42.0" fill="#514F4D" transform="matrix(1.00, 0.00, -0.00, -1.00, 185.0, 583.9)">s</text><text xml:space="preserve" font-family="AvenirNext-Regular,Avenir Next" font-size="42.0" fill="#514F4D" transform="matrix(1.00, 0.00, -0.00, -1.00, 203.7, 583.9)">t</text><text xml:space="preserve" font-family="AvenirNext-Regular,Avenir Next" font-size="42.0" fill="#514F4D" transform="matrix(1.00, 0.00, -0.00, -1.00, 217.0, 583.9)">a</text><text xml:space="preserve" font-family="AvenirNext-Regular,Avenir Next" font-size="42.0" fill="#514F4D" transform="matrix(1.00, 0.00, -0.00, -1.00, 239.4, 583.9)">r</text><text xml:space="preserve" font-family="AvenirNext-Regular,Avenir Next" font-size="42.0" fill="#514F4D" transform="matrix(1.00, 0.00, -0.00, -1.00, 254.0, 583.9)">t</text><text xml:space="preserve" font-family="AvenirNext-Regular,Avenir Next" font-size="42.0" fill="#514F4D" transform="matrix(1.00, 0.00, -0.00, -1.00, 267.3, 583.9)">:</text></g></g><g><clipPath id="clip0x6080008af720"><path d="M 26.5 511.1 L 571.3 511.1 L 571.3 576.9 L 26.5 576.9 Z M 26.5 511.1 "></path></clipPath><g clip-path="url(#clip0x6080008af720)"><text xml:space="preserve" font-family="AvenirNext-Italic,Avenir Next" font-style="italic" font-size="32.0" fill="#1077CA" transform="matrix(1.00, 0.00, -0.00, -1.00, 37.9, 533.7)">S</text><text xml:space="preserve" font-family="AvenirNext-Italic,Avenir Next" font-style="italic" font-size="32.0" fill="#1077CA" transform="matrix(1.00, 0.00, -0.00, -1.00, 55.8, 533.7)">t</text><text xml:space="preserve" font-family="AvenirNext-Italic,Avenir Next" font-style="italic" font-size="32.0" fill="#1077CA" transform="matrix(1.00, 0.00, -0.00, -1.00, 65.6, 533.7)">a</text><text xml:space="preserve" font-family="AvenirNext-Italic,Avenir Next" font-style="italic" font-size="32.0" fill="#1077CA" transform="matrix(1.00, 0.00, -0.00, -1.00, 82.7, 533.7)">n</text><text xml:space="preserve" font-family="AvenirNext-Italic,Avenir Next" font-style="italic" font-size="32.0" fill="#1077CA" transform="matrix(1.00, 0.00, -0.00, -1.00, 101.1, 533.7)">f</text><text xml:space="preserve" font-family="AvenirNext-Italic,Avenir Next" font-style="italic" font-size="32.0" fill="#1077CA" transform="matrix(1.00, 0.00, -0.00, -1.00, 110.6, 533.7)">o</text><text xml:space="preserve" font-family="AvenirNext-Italic,Avenir Next" font-style="italic" font-size="32.0" fill="#1077CA" transform="matrix(1.00, 0.00, -0.00, -1.00, 129.6, 533.7)">r</text><text xml:space="preserve" font-family="AvenirNext-Italic,Avenir Next" font-style="italic" font-size="32.0" fill="#1077CA" transform="matrix(1.00, 0.00, -0.00, -1.00, 140.4, 533.7)">d</text><text xml:space="preserve" font-family="AvenirNext-Italic,Avenir Next" font-style="italic" font-size="32.0" fill="#1077CA" transform="matrix(1.00, 0.00, -0.00, -1.00, 160.3, 533.7)"> </text><text xml:space="preserve" font-family="AvenirNext-Italic,Avenir Next" font-style="italic" font-size="32.0" fill="#1077CA" transform="matrix(1.00, 0.00, -0.00, -1.00, 168.3, 533.7)">U</text><text xml:space="preserve" font-family="AvenirNext-Italic,Avenir Next" font-style="italic" font-size="32.0" fill="#1077CA" transform="matrix(1.00, 0.00, -0.00, -1.00, 191.0, 533.7)">n</text><text xml:space="preserve" font-family="AvenirNext-Italic,Avenir Next" font-style="italic" font-size="32.0" fill="#1077CA" transform="matrix(1.00, 0.00, -0.00, -1.00, 209.5, 533.7)">i</text><text xml:space="preserve" font-family="AvenirNext-Italic,Avenir Next" font-style="italic" font-size="32.0" fill="#1077CA" transform="matrix(1.00, 0.00, -0.00, -1.00, 217.5, 533.7)">v</text><text xml:space="preserve" font-family="AvenirNext-Italic,Avenir Next" font-style="italic" font-size="32.0" fill="#1077CA" transform="matrix(1.00, 0.00, -0.00, -1.00, 232.8, 533.7)">e</text><text xml:space="preserve" font-family="AvenirNext-Italic,Avenir Next" font-style="italic" font-size="32.0" fill="#1077CA" transform="matrix(1.00, 0.00, -0.00, -1.00, 250.9, 533.7)">r</text><text xml:space="preserve" font-family="AvenirNext-Italic,Avenir Next" font-style="italic" font-size="32.0" fill="#1077CA" transform="matrix(1.00, 0.00, -0.00, -1.00, 262.0, 533.7)">s</text><text xml:space="preserve" font-family="AvenirNext-Italic,Avenir Next" font-style="italic" font-size="32.0" fill="#1077CA" transform="matrix(1.00, 0.00, -0.00, -1.00, 276.2, 533.7)">i</text><text xml:space="preserve" font-family="AvenirNext-Italic,Avenir Next" font-style="italic" font-size="32.0" fill="#1077CA" transform="matrix(1.00, 0.00, -0.00, -1.00, 284.2, 533.7)">t</text><text xml:space="preserve" font-family="AvenirNext-Italic,Avenir Next" font-style="italic" font-size="32.0" fill="#1077CA" transform="matrix(1.00, 0.00, -0.00, -1.00, 294.1, 533.7)">y</text><text xml:space="preserve" font-family="AvenirNext-Italic,Avenir Next" font-style="italic" font-size="32.0" fill="#1077CA" transform="matrix(1.00, 0.00, -0.00, -1.00, 309.5, 533.7)"> </text><text xml:space="preserve" font-family="AvenirNext-Italic,Avenir Next" font-style="italic" font-size="32.0" fill="#1077CA" transform="matrix(1.00, 0.00, -0.00, -1.00, 317.5, 533.7)">c</text><text xml:space="preserve" font-family="AvenirNext-Italic,Avenir Next" font-style="italic" font-size="32.0" fill="#1077CA" transform="matrix(1.00, 0.00, -0.00, -1.00, 333.5, 533.7)">o</text><text xml:space="preserve" font-family="AvenirNext-Italic,Avenir Next" font-style="italic" font-size="32.0" fill="#1077CA" transform="matrix(1.00, 0.00, -0.00, -1.00, 352.6, 533.7)">u</text><text xml:space="preserve" font-family="AvenirNext-Italic,Avenir Next" font-style="italic" font-size="32.0" fill="#1077CA" transform="matrix(1.00, 0.00, -0.00, -1.00, 371.0, 533.7)">r</text><text xml:space="preserve" font-family="AvenirNext-Italic,Avenir Next" font-style="italic" font-size="32.0" fill="#1077CA" transform="matrix(1.00, 0.00, -0.00, -1.00, 382.2, 533.7)">s</text><text xml:space="preserve" font-family="AvenirNext-Italic,Avenir Next" font-style="italic" font-size="32.0" fill="#1077CA" transform="matrix(1.00, 0.00, -0.00, -1.00, 396.4, 533.7)">e</text><text xml:space="preserve" font-family="AvenirNext-Italic,Avenir Next" font-style="italic" font-size="32.0" fill="#1077CA" transform="matrix(1.00, 0.00, -0.00, -1.00, 414.5, 533.7)"> </text><text xml:space="preserve" font-family="AvenirNext-Italic,Avenir Next" font-style="italic" font-size="32.0" fill="#1077CA" transform="matrix(1.00, 0.00, -0.00, -1.00, 422.5, 533.7)">o</text><text xml:space="preserve" font-family="AvenirNext-Italic,Avenir Next" font-style="italic" font-size="32.0" fill="#1077CA" transform="matrix(1.00, 0.00, -0.00, -1.00, 441.6, 533.7)">n</text><text xml:space="preserve" font-family="AvenirNext-Italic,Avenir Next" font-style="italic" font-size="32.0" fill="#1077CA" transform="matrix(1.00, 0.00, -0.00, -1.00, 460.0, 533.7)"> </text><text xml:space="preserve" font-family="AvenirNext-Italic,Avenir Next" font-style="italic" font-size="32.0" fill="#1077CA" transform="matrix(1.00, 0.00, -0.00, -1.00, 468.0, 533.7)">i</text><text xml:space="preserve" font-family="AvenirNext-Italic,Avenir Next" font-style="italic" font-size="32.0" fill="#1077CA" transform="matrix(1.00, 0.00, -0.00, -1.00, 476.0, 533.7)">T</text><text xml:space="preserve" font-family="AvenirNext-Italic,Avenir Next" font-style="italic" font-size="32.0" fill="#1077CA" transform="matrix(1.00, 0.00, -0.00, -1.00, 490.7, 533.7)">u</text><text xml:space="preserve" font-family="AvenirNext-Italic,Avenir Next" font-style="italic" font-size="32.0" fill="#1077CA" transform="matrix(1.00, 0.00, -0.00, -1.00, 509.1, 533.7)">n</text><text xml:space="preserve" font-family="AvenirNext-Italic,Avenir Next" font-style="italic" font-size="32.0" fill="#1077CA" transform="matrix(1.00, 0.00, -0.00, -1.00, 527.6, 533.7)">e</text><text xml:space="preserve" font-family="AvenirNext-Italic,Avenir Next" font-style="italic" font-size="32.0" fill="#1077CA" transform="matrix(1.00, 0.00, -0.00, -1.00, 545.7, 533.7)">s</text></g></g><g><clipPath id="clip0x6080008b0680"><path d="M 26.5 468.1 L 604.7 468.1 L 604.7 533.9 L 26.5 533.9 Z M 26.5 468.1 "></path></clipPath><g clip-path="url(#clip0x6080008b0680)"><text xml:space="preserve" font-family="AvenirNext-Italic,Avenir Next" font-style="italic" font-size="32.0" fill="#1077CA" transform="matrix(1.00, 0.00, -0.00, -1.00, 37.9, 490.7)">L</text><text xml:space="preserve" font-family="AvenirNext-Italic,Avenir Next" font-style="italic" font-size="32.0" fill="#1077CA" transform="matrix(1.00, 0.00, -0.00, -1.00, 54.2, 490.7)">a</text><text xml:space="preserve" font-family="AvenirNext-Italic,Avenir Next" font-style="italic" font-size="32.0" fill="#1077CA" transform="matrix(1.00, 0.00, -0.00, -1.00, 71.3, 490.7)">n</text><text xml:space="preserve" font-family="AvenirNext-Italic,Avenir Next" font-style="italic" font-size="32.0" fill="#1077CA" transform="matrix(1.00, 0.00, -0.00, -1.00, 89.8, 490.7)">g</text><text xml:space="preserve" font-family="AvenirNext-Italic,Avenir Next" font-style="italic" font-size="32.0" fill="#1077CA" transform="matrix(1.00, 0.00, -0.00, -1.00, 109.8, 490.7)">u</text><text xml:space="preserve" font-family="AvenirNext-Italic,Avenir Next" font-style="italic" font-size="32.0" fill="#1077CA" transform="matrix(1.00, 0.00, -0.00, -1.00, 128.3, 490.7)">a</text><text xml:space="preserve" font-family="AvenirNext-Italic,Avenir Next" font-style="italic" font-size="32.0" fill="#1077CA" transform="matrix(1.00, 0.00, -0.00, -1.00, 145.4, 490.7)">g</text><text xml:space="preserve" font-family="AvenirNext-Italic,Avenir Next" font-style="italic" font-size="32.0" fill="#1077CA" transform="matrix(1.00, 0.00, -0.00, -1.00, 165.4, 490.7)">e</text><text xml:space="preserve" font-family="AvenirNext-Italic,Avenir Next" font-style="italic" font-size="32.0" fill="#1077CA" transform="matrix(1.00, 0.00, -0.00, -1.00, 183.6, 490.7)"> </text><text xml:space="preserve" font-family="AvenirNext-Italic,Avenir Next" font-style="italic" font-size="32.0" fill="#1077CA" transform="matrix(1.00, 0.00, -0.00, -1.00, 191.6, 490.7)">r</text><text xml:space="preserve" font-family="AvenirNext-Italic,Avenir Next" font-style="italic" font-size="32.0" fill="#1077CA" transform="matrix(1.00, 0.00, -0.00, -1.00, 202.3, 490.7)">e</text><text xml:space="preserve" font-family="AvenirNext-Italic,Avenir Next" font-style="italic" font-size="32.0" fill="#1077CA" transform="matrix(1.00, 0.00, -0.00, -1.00, 220.4, 490.7)">f</text><text xml:space="preserve" font-family="AvenirNext-Italic,Avenir Next" font-style="italic" font-size="32.0" fill="#1077CA" transform="matrix(1.00, 0.00, -0.00, -1.00, 229.9, 490.7)">e</text><text xml:space="preserve" font-family="AvenirNext-Italic,Avenir Next" font-style="italic" font-size="32.0" fill="#1077CA" transform="matrix(1.00, 0.00, -0.00, -1.00, 248.0, 490.7)">r</text><text xml:space="preserve" font-family="AvenirNext-Italic,Avenir Next" font-style="italic" font-size="32.0" fill="#1077CA" transform="matrix(1.00, 0.00, -0.00, -1.00, 258.7, 490.7)">e</text><text xml:space="preserve" font-family="AvenirNext-Italic,Avenir Next" font-style="italic" font-size="32.0" fill="#1077CA" transform="matrix(1.00, 0.00, -0.00, -1.00, 276.8, 490.7)">n</text><text xml:space="preserve" font-family="AvenirNext-Italic,Avenir Next" font-style="italic" font-size="32.0" fill="#1077CA" transform="matrix(1.00, 0.00, -0.00, -1.00, 295.3, 490.7)">c</text><text xml:space="preserve" font-family="AvenirNext-Italic,Avenir Next" font-style="italic" font-size="32.0" fill="#1077CA" transform="matrix(1.00, 0.00, -0.00, -1.00, 311.3, 490.7)">e</text><text xml:space="preserve" font-family="AvenirNext-Italic,Avenir Next" font-style="italic" font-size="32.0" fill="#1077CA" transform="matrix(1.00, 0.00, -0.00, -1.00, 329.4, 490.7)"> </text><text xml:space="preserve" font-family="AvenirNext-Italic,Avenir Next" font-style="italic" font-size="32.0" fill="#1077CA" transform="matrix(1.00, 0.00, -0.00, -1.00, 337.4, 490.7)">g</text><text xml:space="preserve" font-family="AvenirNext-Italic,Avenir Next" font-style="italic" font-size="32.0" fill="#1077CA" transform="matrix(1.00, 0.00, -0.00, -1.00, 357.5, 490.7)">u</text><text xml:space="preserve" font-family="AvenirNext-Italic,Avenir Next" font-style="italic" font-size="32.0" fill="#1077CA" transform="matrix(1.00, 0.00, -0.00, -1.00, 375.9, 490.7)">i</text><text xml:space="preserve" font-family="AvenirNext-Italic,Avenir Next" font-style="italic" font-size="32.0" fill="#1077CA" transform="matrix(1.00, 0.00, -0.00, -1.00, 383.9, 490.7)">d</text><text xml:space="preserve" font-family="AvenirNext-Italic,Avenir Next" font-style="italic" font-size="32.0" fill="#1077CA" transform="matrix(1.00, 0.00, -0.00, -1.00, 403.8, 490.7)">e</text><text xml:space="preserve" font-family="AvenirNext-Italic,Avenir Next" font-style="italic" font-size="32.0" fill="#1077CA" transform="matrix(1.00, 0.00, -0.00, -1.00, 422.0, 490.7)"> </text><text xml:space="preserve" font-family="AvenirNext-Italic,Avenir Next" font-style="italic" font-size="32.0" fill="#1077CA" transform="matrix(1.00, 0.00, -0.00, -1.00, 430.0, 490.7)">f</text><text xml:space="preserve" font-family="AvenirNext-Italic,Avenir Next" font-style="italic" font-size="32.0" fill="#1077CA" transform="matrix(1.00, 0.00, -0.00, -1.00, 439.4, 490.7)">r</text><text xml:space="preserve" font-family="AvenirNext-Italic,Avenir Next" font-style="italic" font-size="32.0" fill="#1077CA" transform="matrix(1.00, 0.00, -0.00, -1.00, 450.2, 490.7)">o</text><text xml:space="preserve" font-family="AvenirNext-Italic,Avenir Next" font-style="italic" font-size="32.0" fill="#1077CA" transform="matrix(1.00, 0.00, -0.00, -1.00, 469.2, 490.7)">m</text><text xml:space="preserve" font-family="AvenirNext-Italic,Avenir Next" font-style="italic" font-size="32.0" fill="#1077CA" transform="matrix(1.00, 0.00, -0.00, -1.00, 497.2, 490.7)"> </text><text xml:space="preserve" font-family="AvenirNext-Italic,Avenir Next" font-style="italic" font-size="32.0" fill="#1077CA" transform="matrix(1.00, 0.00, -0.00, -1.00, 504.6, 490.7)">A</text><text xml:space="preserve" font-family="AvenirNext-Italic,Avenir Next" font-style="italic" font-size="32.0" fill="#1077CA" transform="matrix(1.00, 0.00, -0.00, -1.00, 526.9, 490.7)">p</text><text xml:space="preserve" font-family="AvenirNext-Italic,Avenir Next" font-style="italic" font-size="32.0" fill="#1077CA" transform="matrix(1.00, 0.00, -0.00, -1.00, 547.0, 490.7)">p</text><text xml:space="preserve" font-family="AvenirNext-Italic,Avenir Next" font-style="italic" font-size="32.0" fill="#1077CA" transform="matrix(1.00, 0.00, -0.00, -1.00, 567.0, 490.7)">l</text><text xml:space="preserve" font-family="AvenirNext-Italic,Avenir Next" font-style="italic" font-size="32.0" fill="#1077CA" transform="matrix(1.00, 0.00, -0.00, -1.00, 575.1, 490.7)">e</text></g></g><g><clipPath id="clip0x6080008b1580"><path d="M 23.1 362.2 L 371.8 362.2 L 371.8 447.8 L 23.1 447.8 Z M 23.1 362.2 "></path></clipPath><g clip-path="url(#clip0x6080008b1580)"><text xml:space="preserve" font-family="AvenirNext-Regular,Avenir Next" font-size="42.0" fill="#514F4D" transform="matrix(1.00, 0.00, -0.00, -1.00, 37.9, 391.9)">G</text><text xml:space="preserve" font-family="AvenirNext-Regular,Avenir Next" font-size="42.0" fill="#514F4D" transform="matrix(1.00, 0.00, -0.00, -1.00, 70.6, 391.9)">o</text><text xml:space="preserve" font-family="AvenirNext-Regular,Avenir Next" font-size="42.0" fill="#514F4D" transform="matrix(1.00, 0.00, -0.00, -1.00, 96.3, 391.9)">o</text><text xml:space="preserve" font-family="AvenirNext-Regular,Avenir Next" font-size="42.0" fill="#514F4D" transform="matrix(1.00, 0.00, -0.00, -1.00, 121.9, 391.9)">d</text><text xml:space="preserve" font-family="AvenirNext-Regular,Avenir Next" font-size="42.0" fill="#514F4D" transform="matrix(1.00, 0.00, -0.00, -1.00, 148.7, 391.9)"> </text><text xml:space="preserve" font-family="AvenirNext-Regular,Avenir Next" font-size="42.0" fill="#514F4D" transform="matrix(1.00, 0.00, -0.00, -1.00, 159.2, 391.9)">r</text><text xml:space="preserve" font-family="AvenirNext-Regular,Avenir Next" font-size="42.0" fill="#514F4D" transform="matrix(1.00, 0.00, -0.00, -1.00, 173.6, 391.9)">e</text><text xml:space="preserve" font-family="AvenirNext-Regular,Avenir Next" font-size="42.0" fill="#514F4D" transform="matrix(1.00, 0.00, -0.00, -1.00, 197.6, 391.9)">s</text><text xml:space="preserve" font-family="AvenirNext-Regular,Avenir Next" font-size="42.0" fill="#514F4D" transform="matrix(1.00, 0.00, -0.00, -1.00, 216.2, 391.9)">o</text><text xml:space="preserve" font-family="AvenirNext-Regular,Avenir Next" font-size="42.0" fill="#514F4D" transform="matrix(1.00, 0.00, -0.00, -1.00, 241.9, 391.9)">u</text><text xml:space="preserve" font-family="AvenirNext-Regular,Avenir Next" font-size="42.0" fill="#514F4D" transform="matrix(1.00, 0.00, -0.00, -1.00, 266.3, 391.9)">r</text><text xml:space="preserve" font-family="AvenirNext-Regular,Avenir Next" font-size="42.0" fill="#514F4D" transform="matrix(1.00, 0.00, -0.00, -1.00, 280.7, 391.9)">c</text><text xml:space="preserve" font-family="AvenirNext-Regular,Avenir Next" font-size="42.0" fill="#514F4D" transform="matrix(1.00, 0.00, -0.00, -1.00, 301.7, 391.9)">e</text><text xml:space="preserve" font-family="AvenirNext-Regular,Avenir Next" font-size="42.0" fill="#514F4D" transform="matrix(1.00, 0.00, -0.00, -1.00, 325.7, 391.9)">s</text><text xml:space="preserve" font-family="AvenirNext-Regular,Avenir Next" font-size="42.0" fill="#514F4D" transform="matrix(1.00, 0.00, -0.00, -1.00, 344.3, 391.9)">:</text></g></g><g><clipPath id="clip0x6080008b1d00"><path d="M 26.5 318.1 L 328.4 318.1 L 328.4 383.9 L 26.5 383.9 Z M 26.5 318.1 "></path></clipPath><g clip-path="url(#clip0x6080008b1d00)"><text xml:space="preserve" font-family="AvenirNext-Italic,Avenir Next" font-style="italic" font-size="32.0" fill="#1077CA" transform="matrix(1.00, 0.00, -0.00, -1.00, 37.9, 340.7)">h</text><text xml:space="preserve" font-family="AvenirNext-Italic,Avenir Next" font-style="italic" font-size="32.0" fill="#1077CA" transform="matrix(1.00, 0.00, -0.00, -1.00, 56.4, 340.7)">t</text><text xml:space="preserve" font-family="AvenirNext-Italic,Avenir Next" font-style="italic" font-size="32.0" fill="#1077CA" transform="matrix(1.00, 0.00, -0.00, -1.00, 65.6, 340.7)">t</text><text xml:space="preserve" font-family="AvenirNext-Italic,Avenir Next" font-style="italic" font-size="32.0" fill="#1077CA" transform="matrix(1.00, 0.00, -0.00, -1.00, 75.4, 340.7)">p</text><text xml:space="preserve" font-family="AvenirNext-Italic,Avenir Next" font-style="italic" font-size="32.0" fill="#1077CA" transform="matrix(1.00, 0.00, -0.00, -1.00, 95.5, 340.7)">:</text><text xml:space="preserve" font-family="AvenirNext-Italic,Avenir Next" font-style="italic" font-size="32.0" fill="#1077CA" transform="matrix(1.00, 0.00, -0.00, -1.00, 105.1, 340.7)">/</text><text xml:space="preserve" font-family="AvenirNext-Italic,Avenir Next" font-style="italic" font-size="32.0" fill="#1077CA" transform="matrix(1.00, 0.00, -0.00, -1.00, 117.0, 340.7)">/</text><text xml:space="preserve" font-family="AvenirNext-Italic,Avenir Next" font-style="italic" font-size="32.0" fill="#1077CA" transform="matrix(1.00, 0.00, -0.00, -1.00, 128.8, 340.7)">w</text><text xml:space="preserve" font-family="AvenirNext-Italic,Avenir Next" font-style="italic" font-size="32.0" fill="#1077CA" transform="matrix(1.00, 0.00, -0.00, -1.00, 152.3, 340.7)">w</text><text xml:space="preserve" font-family="AvenirNext-Italic,Avenir Next" font-style="italic" font-size="32.0" fill="#1077CA" transform="matrix(1.00, 0.00, -0.00, -1.00, 175.7, 340.7)">w</text><text xml:space="preserve" font-family="AvenirNext-Italic,Avenir Next" font-style="italic" font-size="32.0" fill="#1077CA" transform="matrix(1.00, 0.00, -0.00, -1.00, 198.2, 340.7)">.</text><text xml:space="preserve" font-family="AvenirNext-Italic,Avenir Next" font-style="italic" font-size="32.0" fill="#1077CA" transform="matrix(1.00, 0.00, -0.00, -1.00, 206.5, 340.7)">o</text><text xml:space="preserve" font-family="AvenirNext-Italic,Avenir Next" font-style="italic" font-size="32.0" fill="#1077CA" transform="matrix(1.00, 0.00, -0.00, -1.00, 225.6, 340.7)">b</text><text xml:space="preserve" font-family="AvenirNext-Italic,Avenir Next" font-style="italic" font-size="32.0" fill="#1077CA" transform="matrix(1.00, 0.00, -0.00, -1.00, 245.7, 340.7)">j</text><text xml:space="preserve" font-family="AvenirNext-Italic,Avenir Next" font-style="italic" font-size="32.0" fill="#1077CA" transform="matrix(1.00, 0.00, -0.00, -1.00, 253.7, 340.7)">c</text><text xml:space="preserve" font-family="AvenirNext-Italic,Avenir Next" font-style="italic" font-size="32.0" fill="#1077CA" transform="matrix(1.00, 0.00, -0.00, -1.00, 269.7, 340.7)">.</text><text xml:space="preserve" font-family="AvenirNext-Italic,Avenir Next" font-style="italic" font-size="32.0" fill="#1077CA" transform="matrix(1.00, 0.00, -0.00, -1.00, 278.1, 340.7)">i</text><text xml:space="preserve" font-family="AvenirNext-Italic,Avenir Next" font-style="italic" font-size="32.0" fill="#1077CA" transform="matrix(1.00, 0.00, -0.00, -1.00, 286.1, 340.7)">o</text><text xml:space="preserve" font-family="AvenirNext-Italic,Avenir Next" font-style="italic" font-size="32.0" fill="#1077CA" transform="matrix(1.00, 0.00, -0.00, -1.00, 305.1, 340.7)">/</text><path d="M 4.5 38.7 L 283.6 38.7 " fill="none" stroke="#1077CA" stroke-width="1.60" transform="matrix(1.00, 0.00, 0.00, -1.00, 33.4, 377.0)"></path></g></g><g><clipPath id="clip0x6080008b26c0"><path d="M 26.5 269.1 L 495.5 269.1 L 495.5 334.9 L 26.5 334.9 Z M 26.5 269.1 "></path></clipPath><g clip-path="url(#clip0x6080008b26c0)"><text xml:space="preserve" font-family="AvenirNext-Italic,Avenir Next" font-style="italic" font-size="32.0" fill="#1077CA" transform="matrix(1.00, 0.00, -0.00, -1.00, 37.9, 291.7)">h</text><text xml:space="preserve" font-family="AvenirNext-Italic,Avenir Next" font-style="italic" font-size="32.0" fill="#1077CA" transform="matrix(1.00, 0.00, -0.00, -1.00, 56.4, 291.7)">t</text><text xml:space="preserve" font-family="AvenirNext-Italic,Avenir Next" font-style="italic" font-size="32.0" fill="#1077CA" transform="matrix(1.00, 0.00, -0.00, -1.00, 65.6, 291.7)">t</text><text xml:space="preserve" font-family="AvenirNext-Italic,Avenir Next" font-style="italic" font-size="32.0" fill="#1077CA" transform="matrix(1.00, 0.00, -0.00, -1.00, 75.4, 291.7)">p</text><text xml:space="preserve" font-family="AvenirNext-Italic,Avenir Next" font-style="italic" font-size="32.0" fill="#1077CA" transform="matrix(1.00, 0.00, -0.00, -1.00, 95.5, 291.7)">s</text><text xml:space="preserve" font-family="AvenirNext-Italic,Avenir Next" font-style="italic" font-size="32.0" fill="#1077CA" transform="matrix(1.00, 0.00, -0.00, -1.00, 109.7, 291.7)">:</text><text xml:space="preserve" font-family="AvenirNext-Italic,Avenir Next" font-style="italic" font-size="32.0" fill="#1077CA" transform="matrix(1.00, 0.00, -0.00, -1.00, 119.3, 291.7)">/</text><text xml:space="preserve" font-family="AvenirNext-Italic,Avenir Next" font-style="italic" font-size="32.0" fill="#1077CA" transform="matrix(1.00, 0.00, -0.00, -1.00, 131.2, 291.7)">/</text><text xml:space="preserve" font-family="AvenirNext-Italic,Avenir Next" font-style="italic" font-size="32.0" fill="#1077CA" transform="matrix(1.00, 0.00, -0.00, -1.00, 143.0, 291.7)">w</text><text xml:space="preserve" font-family="AvenirNext-Italic,Avenir Next" font-style="italic" font-size="32.0" fill="#1077CA" transform="matrix(1.00, 0.00, -0.00, -1.00, 166.5, 291.7)">w</text><text xml:space="preserve" font-family="AvenirNext-Italic,Avenir Next" font-style="italic" font-size="32.0" fill="#1077CA" transform="matrix(1.00, 0.00, -0.00, -1.00, 189.9, 291.7)">w</text><text xml:space="preserve" font-family="AvenirNext-Italic,Avenir Next" font-style="italic" font-size="32.0" fill="#1077CA" transform="matrix(1.00, 0.00, -0.00, -1.00, 212.4, 291.7)">.</text><text xml:space="preserve" font-family="AvenirNext-Italic,Avenir Next" font-style="italic" font-size="32.0" fill="#1077CA" transform="matrix(1.00, 0.00, -0.00, -1.00, 220.7, 291.7)">w</text><text xml:space="preserve" font-family="AvenirNext-Italic,Avenir Next" font-style="italic" font-size="32.0" fill="#1077CA" transform="matrix(1.00, 0.00, -0.00, -1.00, 244.2, 291.7)">e</text><text xml:space="preserve" font-family="AvenirNext-Italic,Avenir Next" font-style="italic" font-size="32.0" fill="#1077CA" transform="matrix(1.00, 0.00, -0.00, -1.00, 262.3, 291.7)">h</text><text xml:space="preserve" font-family="AvenirNext-Italic,Avenir Next" font-style="italic" font-size="32.0" fill="#1077CA" transform="matrix(1.00, 0.00, -0.00, -1.00, 280.8, 291.7)">e</text><text xml:space="preserve" font-family="AvenirNext-Italic,Avenir Next" font-style="italic" font-size="32.0" fill="#1077CA" transform="matrix(1.00, 0.00, -0.00, -1.00, 298.7, 291.7)">a</text><text xml:space="preserve" font-family="AvenirNext-Italic,Avenir Next" font-style="italic" font-size="32.0" fill="#1077CA" transform="matrix(1.00, 0.00, -0.00, -1.00, 315.8, 291.7)">r</text><text xml:space="preserve" font-family="AvenirNext-Italic,Avenir Next" font-style="italic" font-size="32.0" fill="#1077CA" transform="matrix(1.00, 0.00, -0.00, -1.00, 326.5, 291.7)">t</text><text xml:space="preserve" font-family="AvenirNext-Italic,Avenir Next" font-style="italic" font-size="32.0" fill="#1077CA" transform="matrix(1.00, 0.00, -0.00, -1.00, 336.4, 291.7)">s</text><text xml:space="preserve" font-family="AvenirNext-Italic,Avenir Next" font-style="italic" font-size="32.0" fill="#1077CA" transform="matrix(1.00, 0.00, -0.00, -1.00, 350.6, 291.7)">w</text><text xml:space="preserve" font-family="AvenirNext-Italic,Avenir Next" font-style="italic" font-size="32.0" fill="#1077CA" transform="matrix(1.00, 0.00, -0.00, -1.00, 374.0, 291.7)">i</text><text xml:space="preserve" font-family="AvenirNext-Italic,Avenir Next" font-style="italic" font-size="32.0" fill="#1077CA" transform="matrix(1.00, 0.00, -0.00, -1.00, 382.0, 291.7)">f</text><text xml:space="preserve" font-family="AvenirNext-Italic,Avenir Next" font-style="italic" font-size="32.0" fill="#1077CA" transform="matrix(1.00, 0.00, -0.00, -1.00, 391.1, 291.7)">t</text><text xml:space="preserve" font-family="AvenirNext-Italic,Avenir Next" font-style="italic" font-size="32.0" fill="#1077CA" transform="matrix(1.00, 0.00, -0.00, -1.00, 400.9, 291.7)">.</text><text xml:space="preserve" font-family="AvenirNext-Italic,Avenir Next" font-style="italic" font-size="32.0" fill="#1077CA" transform="matrix(1.00, 0.00, -0.00, -1.00, 409.2, 291.7)">c</text><text xml:space="preserve" font-family="AvenirNext-Italic,Avenir Next" font-style="italic" font-size="32.0" fill="#1077CA" transform="matrix(1.00, 0.00, -0.00, -1.00, 425.2, 291.7)">o</text><text xml:space="preserve" font-family="AvenirNext-Italic,Avenir Next" font-style="italic" font-size="32.0" fill="#1077CA" transform="matrix(1.00, 0.00, -0.00, -1.00, 444.3, 291.7)">m</text><text xml:space="preserve" font-family="AvenirNext-Italic,Avenir Next" font-style="italic" font-size="32.0" fill="#1077CA" transform="matrix(1.00, 0.00, -0.00, -1.00, 472.3, 291.7)">/</text><path d="M 4.5 38.7 L 450.7 38.7 " fill="none" stroke="#1077CA" stroke-width="1.60" transform="matrix(1.00, 0.00, 0.00, -1.00, 33.4, 328.0)"></path></g></g><g><clipPath id="clip0x6080008b3440"><path d="M 26.5 220.1 L 633.1 220.1 L 633.1 285.9 L 26.5 285.9 Z M 26.5 220.1 "></path></clipPath><g clip-path="url(#clip0x6080008b3440)"><text xml:space="preserve" font-family="AvenirNext-Italic,Avenir Next" font-style="italic" font-size="32.0" fill="#1077CA" transform="matrix(1.00, 0.00, -0.00, -1.00, 37.9, 242.7)">h</text><text xml:space="preserve" font-family="AvenirNext-Italic,Avenir Next" font-style="italic" font-size="32.0" fill="#1077CA" transform="matrix(1.00, 0.00, -0.00, -1.00, 56.4, 242.7)">t</text><text xml:space="preserve" font-family="AvenirNext-Italic,Avenir Next" font-style="italic" font-size="32.0" fill="#1077CA" transform="matrix(1.00, 0.00, -0.00, -1.00, 65.6, 242.7)">t</text><text xml:space="preserve" font-family="AvenirNext-Italic,Avenir Next" font-style="italic" font-size="32.0" fill="#1077CA" transform="matrix(1.00, 0.00, -0.00, -1.00, 75.4, 242.7)">p</text><text xml:space="preserve" font-family="AvenirNext-Italic,Avenir Next" font-style="italic" font-size="32.0" fill="#1077CA" transform="matrix(1.00, 0.00, -0.00, -1.00, 95.5, 242.7)">s</text><text xml:space="preserve" font-family="AvenirNext-Italic,Avenir Next" font-style="italic" font-size="32.0" fill="#1077CA" transform="matrix(1.00, 0.00, -0.00, -1.00, 109.7, 242.7)">:</text><text xml:space="preserve" font-family="AvenirNext-Italic,Avenir Next" font-style="italic" font-size="32.0" fill="#1077CA" transform="matrix(1.00, 0.00, -0.00, -1.00, 119.3, 242.7)">/</text><text xml:space="preserve" font-family="AvenirNext-Italic,Avenir Next" font-style="italic" font-size="32.0" fill="#1077CA" transform="matrix(1.00, 0.00, -0.00, -1.00, 131.2, 242.7)">/</text><text xml:space="preserve" font-family="AvenirNext-Italic,Avenir Next" font-style="italic" font-size="32.0" fill="#1077CA" transform="matrix(1.00, 0.00, -0.00, -1.00, 143.0, 242.7)">m</text><text xml:space="preserve" font-family="AvenirNext-Italic,Avenir Next" font-style="italic" font-size="32.0" fill="#1077CA" transform="matrix(1.00, 0.00, -0.00, -1.00, 171.0, 242.7)">e</text><text xml:space="preserve" font-family="AvenirNext-Italic,Avenir Next" font-style="italic" font-size="32.0" fill="#1077CA" transform="matrix(1.00, 0.00, -0.00, -1.00, 189.1, 242.7)">d</text><text xml:space="preserve" font-family="AvenirNext-Italic,Avenir Next" font-style="italic" font-size="32.0" fill="#1077CA" transform="matrix(1.00, 0.00, -0.00, -1.00, 209.0, 242.7)">i</text><text xml:space="preserve" font-family="AvenirNext-Italic,Avenir Next" font-style="italic" font-size="32.0" fill="#1077CA" transform="matrix(1.00, 0.00, -0.00, -1.00, 217.0, 242.7)">u</text><text xml:space="preserve" font-family="AvenirNext-Italic,Avenir Next" font-style="italic" font-size="32.0" fill="#1077CA" transform="matrix(1.00, 0.00, -0.00, -1.00, 235.5, 242.7)">m</text><text xml:space="preserve" font-family="AvenirNext-Italic,Avenir Next" font-style="italic" font-size="32.0" fill="#1077CA" transform="matrix(1.00, 0.00, -0.00, -1.00, 263.4, 242.7)">.</text><text xml:space="preserve" font-family="AvenirNext-Italic,Avenir Next" font-style="italic" font-size="32.0" fill="#1077CA" transform="matrix(1.00, 0.00, -0.00, -1.00, 271.8, 242.7)">c</text><text xml:space="preserve" font-family="AvenirNext-Italic,Avenir Next" font-style="italic" font-size="32.0" fill="#1077CA" transform="matrix(1.00, 0.00, -0.00, -1.00, 287.8, 242.7)">o</text><text xml:space="preserve" font-family="AvenirNext-Italic,Avenir Next" font-style="italic" font-size="32.0" fill="#1077CA" transform="matrix(1.00, 0.00, -0.00, -1.00, 306.8, 242.7)">m</text><text xml:space="preserve" font-family="AvenirNext-Italic,Avenir Next" font-style="italic" font-size="32.0" fill="#1077CA" transform="matrix(1.00, 0.00, -0.00, -1.00, 334.8, 242.7)">/</text><text xml:space="preserve" font-family="AvenirNext-Italic,Avenir Next" font-style="italic" font-size="32.0" fill="#1077CA" transform="matrix(1.00, 0.00, -0.00, -1.00, 346.6, 242.7)">s</text><text xml:space="preserve" font-family="AvenirNext-Italic,Avenir Next" font-style="italic" font-size="32.0" fill="#1077CA" transform="matrix(1.00, 0.00, -0.00, -1.00, 360.8, 242.7)">w</text><text xml:space="preserve" font-family="AvenirNext-Italic,Avenir Next" font-style="italic" font-size="32.0" fill="#1077CA" transform="matrix(1.00, 0.00, -0.00, -1.00, 384.3, 242.7)">i</text><text xml:space="preserve" font-family="AvenirNext-Italic,Avenir Next" font-style="italic" font-size="32.0" fill="#1077CA" transform="matrix(1.00, 0.00, -0.00, -1.00, 392.3, 242.7)">f</text><text xml:space="preserve" font-family="AvenirNext-Italic,Avenir Next" font-style="italic" font-size="32.0" fill="#1077CA" transform="matrix(1.00, 0.00, -0.00, -1.00, 401.4, 242.7)">t</text><text xml:space="preserve" font-family="AvenirNext-Italic,Avenir Next" font-style="italic" font-size="32.0" fill="#1077CA" transform="matrix(1.00, 0.00, -0.00, -1.00, 411.2, 242.7)">-</text><text xml:space="preserve" font-family="AvenirNext-Italic,Avenir Next" font-style="italic" font-size="32.0" fill="#1077CA" transform="matrix(1.00, 0.00, -0.00, -1.00, 421.4, 242.7)">p</text><text xml:space="preserve" font-family="AvenirNext-Italic,Avenir Next" font-style="italic" font-size="32.0" fill="#1077CA" transform="matrix(1.00, 0.00, -0.00, -1.00, 441.5, 242.7)">r</text><text xml:space="preserve" font-family="AvenirNext-Italic,Avenir Next" font-style="italic" font-size="32.0" fill="#1077CA" transform="matrix(1.00, 0.00, -0.00, -1.00, 452.3, 242.7)">o</text><text xml:space="preserve" font-family="AvenirNext-Italic,Avenir Next" font-style="italic" font-size="32.0" fill="#1077CA" transform="matrix(1.00, 0.00, -0.00, -1.00, 471.3, 242.7)">g</text><text xml:space="preserve" font-family="AvenirNext-Italic,Avenir Next" font-style="italic" font-size="32.0" fill="#1077CA" transform="matrix(1.00, 0.00, -0.00, -1.00, 491.4, 242.7)">r</text><text xml:space="preserve" font-family="AvenirNext-Italic,Avenir Next" font-style="italic" font-size="32.0" fill="#1077CA" transform="matrix(1.00, 0.00, -0.00, -1.00, 502.2, 242.7)">a</text><text xml:space="preserve" font-family="AvenirNext-Italic,Avenir Next" font-style="italic" font-size="32.0" fill="#1077CA" transform="matrix(1.00, 0.00, -0.00, -1.00, 519.2, 242.7)">m</text><text xml:space="preserve" font-family="AvenirNext-Italic,Avenir Next" font-style="italic" font-size="32.0" fill="#1077CA" transform="matrix(1.00, 0.00, -0.00, -1.00, 547.2, 242.7)">m</text><text xml:space="preserve" font-family="AvenirNext-Italic,Avenir Next" font-style="italic" font-size="32.0" fill="#1077CA" transform="matrix(1.00, 0.00, -0.00, -1.00, 575.2, 242.7)">i</text><text xml:space="preserve" font-family="AvenirNext-Italic,Avenir Next" font-style="italic" font-size="32.0" fill="#1077CA" transform="matrix(1.00, 0.00, -0.00, -1.00, 583.2, 242.7)">n</text><text xml:space="preserve" font-family="AvenirNext-Italic,Avenir Next" font-style="italic" font-size="32.0" fill="#1077CA" transform="matrix(1.00, 0.00, -0.00, -1.00, 601.6, 242.7)">g</text><path d="M 4.5 38.7 L 588.3 38.7 " fill="none" stroke="#1077CA" stroke-width="1.60" transform="matrix(1.00, 0.00, 0.00, -1.00, 33.4, 279.0)"></path></g></g></g></svg>