<?xml version="1.0" encoding="UTF-8" standalone="no"?><svg xmlns="http://www.w3.org/2000/svg" xmlns:xlink="http://www.w3.org/1999/xlink" clip-rule="evenodd" stroke-miterlimit="10" viewBox="0 0 596 213"><desc>SVG generated by Keynote</desc><defs></defs><g transform="matrix(1.00, 0.00, -0.00, -1.00, 0.0, 213.0)"><g><clipPath id="clip0x600000ab9c20"><path d="M -8.9 136.2 L 339.8 136.2 L 339.8 221.8 L -8.9 221.8 Z M -8.9 136.2 "></path></clipPath><g clip-path="url(#clip0x600000ab9c20)"><text xml:space="preserve" font-family="AvenirNext-Regular,Avenir Next" font-size="42.0" fill="#514F4D" transform="matrix(1.00, 0.00, -0.00, -1.00, 5.9, 165.9)">G</text><text xml:space="preserve" font-family="AvenirNext-Regular,Avenir Next" font-size="42.0" fill="#514F4D" transform="matrix(1.00, 0.00, -0.00, -1.00, 38.6, 165.9)">o</text><text xml:space="preserve" font-family="AvenirNext-Regular,Avenir Next" font-size="42.0" fill="#514F4D" transform="matrix(1.00, 0.00, -0.00, -1.00, 64.3, 165.9)">o</text><text xml:space="preserve" font-family="AvenirNext-Regular,Avenir Next" font-size="42.0" fill="#514F4D" transform="matrix(1.00, 0.00, -0.00, -1.00, 89.9, 165.9)">d</text><text xml:space="preserve" font-family="AvenirNext-Regular,Avenir Next" font-size="42.0" fill="#514F4D" transform="matrix(1.00, 0.00, -0.00, -1.00, 116.7, 165.9)"> </text><text xml:space="preserve" font-family="AvenirNext-Regular,Avenir Next" font-size="42.0" fill="#514F4D" transform="matrix(1.00, 0.00, -0.00, -1.00, 127.2, 165.9)">r</text><text xml:space="preserve" font-family="AvenirNext-Regular,Avenir Next" font-size="42.0" fill="#514F4D" transform="matrix(1.00, 0.00, -0.00, -1.00, 141.6, 165.9)">e</text><text xml:space="preserve" font-family="AvenirNext-Regular,Avenir Next" font-size="42.0" fill="#514F4D" transform="matrix(1.00, 0.00, -0.00, -1.00, 165.6, 165.9)">s</text><text xml:space="preserve" font-family="AvenirNext-Regular,Avenir Next" font-size="42.0" fill="#514F4D" transform="matrix(1.00, 0.00, -0.00, -1.00, 184.2, 165.9)">o</text><text xml:space="preserve" font-family="AvenirNext-Regular,Avenir Next" font-size="42.0" fill="#514F4D" transform="matrix(1.00, 0.00, -0.00, -1.00, 209.9, 165.9)">u</text><text xml:space="preserve" font-family="AvenirNext-Regular,Avenir Next" font-size="42.0" fill="#514F4D" transform="matrix(1.00, 0.00, -0.00, -1.00, 234.3, 165.9)">r</text><text xml:space="preserve" font-family="AvenirNext-Regular,Avenir Next" font-size="42.0" fill="#514F4D" transform="matrix(1.00, 0.00, -0.00, -1.00, 248.7, 165.9)">c</text><text xml:space="preserve" font-family="AvenirNext-Regular,Avenir Next" font-size="42.0" fill="#514F4D" transform="matrix(1.00, 0.00, -0.00, -1.00, 269.7, 165.9)">e</text><text xml:space="preserve" font-family="AvenirNext-Regular,Avenir Next" font-size="42.0" fill="#514F4D" transform="matrix(1.00, 0.00, -0.00, -1.00, 293.7, 165.9)">s</text><text xml:space="preserve" font-family="AvenirNext-Regular,Avenir Next" font-size="42.0" fill="#514F4D" transform="matrix(1.00, 0.00, -0.00, -1.00, 312.3, 165.9)">:</text></g></g><g><clipPath id="clip0x600000aba940"><path d="M -5.5 92.1 L 296.4 92.1 L 296.4 157.9 L -5.5 157.9 Z M -5.5 92.1 "></path></clipPath><g clip-path="url(#clip0x600000aba940)"><text xml:space="preserve" font-family="AvenirNext-Italic,Avenir Next" font-style="italic" font-size="32.0" fill="#1077CA" transform="matrix(1.00, 0.00, -0.00, -1.00, 5.9, 114.7)">h</text><text xml:space="preserve" font-family="AvenirNext-Italic,Avenir Next" font-style="italic" font-size="32.0" fill="#1077CA" transform="matrix(1.00, 0.00, -0.00, -1.00, 24.4, 114.7)">t</text><text xml:space="preserve" font-family="AvenirNext-Italic,Avenir Next" font-style="italic" font-size="32.0" fill="#1077CA" transform="matrix(1.00, 0.00, -0.00, -1.00, 33.6, 114.7)">t</text><text xml:space="preserve" font-family="AvenirNext-Italic,Avenir Next" font-style="italic" font-size="32.0" fill="#1077CA" transform="matrix(1.00, 0.00, -0.00, -1.00, 43.4, 114.7)">p</text><text xml:space="preserve" font-family="AvenirNext-Italic,Avenir Next" font-style="italic" font-size="32.0" fill="#1077CA" transform="matrix(1.00, 0.00, -0.00, -1.00, 63.5, 114.7)">:</text><text xml:space="preserve" font-family="AvenirNext-Italic,Avenir Next" font-style="italic" font-size="32.0" fill="#1077CA" transform="matrix(1.00, 0.00, -0.00, -1.00, 73.1, 114.7)">/</text><text xml:space="preserve" font-family="AvenirNext-Italic,Avenir Next" font-style="italic" font-size="32.0" fill="#1077CA" transform="matrix(1.00, 0.00, -0.00, -1.00, 85.0, 114.7)">/</text><text xml:space="preserve" font-family="AvenirNext-Italic,Avenir Next" font-style="italic" font-size="32.0" fill="#1077CA" transform="matrix(1.00, 0.00, -0.00, -1.00, 96.8, 114.7)">w</text><text xml:space="preserve" font-family="AvenirNext-Italic,Avenir Next" font-style="italic" font-size="32.0" fill="#1077CA" transform="matrix(1.00, 0.00, -0.00, -1.00, 120.3, 114.7)">w</text><text xml:space="preserve" font-family="AvenirNext-Italic,Avenir Next" font-style="italic" font-size="32.0" fill="#1077CA" transform="matrix(1.00, 0.00, -0.00, -1.00, 143.7, 114.7)">w</text><text xml:space="preserve" font-family="AvenirNext-Italic,Avenir Next" font-style="italic" font-size="32.0" fill="#1077CA" transform="matrix(1.00, 0.00, -0.00, -1.00, 166.2, 114.7)">.</text><text xml:space="preserve" font-family="AvenirNext-Italic,Avenir Next" font-style="italic" font-size="32.0" fill="#1077CA" transform="matrix(1.00, 0.00, -0.00, -1.00, 174.5, 114.7)">o</text><text xml:space="preserve" font-family="AvenirNext-Italic,Avenir Next" font-style="italic" font-size="32.0" fill="#1077CA" transform="matrix(1.00, 0.00, -0.00, -1.00, 193.6, 114.7)">b</text><text xml:space="preserve" font-family="AvenirNext-Italic,Avenir Next" font-style="italic" font-size="32.0" fill="#1077CA" transform="matrix(1.00, 0.00, -0.00, -1.00, 213.7, 114.7)">j</text><text xml:space="preserve" font-family="AvenirNext-Italic,Avenir Next" font-style="italic" font-size="32.0" fill="#1077CA" transform="matrix(1.00, 0.00, -0.00, -1.00, 221.7, 114.7)">c</text><text xml:space="preserve" font-family="AvenirNext-Italic,Avenir Next" font-style="italic" font-size="32.0" fill="#1077CA" transform="matrix(1.00, 0.00, -0.00, -1.00, 237.7, 114.7)">.</text><text xml:space="preserve" font-family="AvenirNext-Italic,Avenir Next" font-style="italic" font-size="32.0" fill="#1077CA" transform="matrix(1.00, 0.00, -0.00, -1.00, 246.1, 114.7)">i</text><text xml:space="preserve" font-family="AvenirNext-Italic,Avenir Next" font-style="italic" font-size="32.0" fill="#1077CA" transform="matrix(1.00, 0.00, -0.00, -1.00, 254.1, 114.7)">o</text><text xml:space="preserve" font-family="AvenirNext-Italic,Avenir Next" font-style="italic" font-size="32.0" fill="#1077CA" transform="matrix(1.00, 0.00, -0.00, -1.00, 273.1, 114.7)">/</text><path d="M 4.5 38.7 L 283.6 38.7 " fill="none" stroke="#1077CA" stroke-width="1.60" transform="matrix(1.00, 0.00, 0.00, -1.00, 1.4, 151.0)"></path></g></g><g><clipPath id="clip0x600000abb300"><path d="M -5.5 43.1 L 463.5 43.1 L 463.5 108.9 L -5.5 108.9 Z M -5.5 43.1 "></path></clipPath><g clip-path="url(#clip0x600000abb300)"><text xml:space="preserve" font-family="AvenirNext-Italic,Avenir Next" font-style="italic" font-size="32.0" fill="#1077CA" transform="matrix(1.00, 0.00, -0.00, -1.00, 5.9, 65.7)">h</text><text xml:space="preserve" font-family="AvenirNext-Italic,Avenir Next" font-style="italic" font-size="32.0" fill="#1077CA" transform="matrix(1.00, 0.00, -0.00, -1.00, 24.4, 65.7)">t</text><text xml:space="preserve" font-family="AvenirNext-Italic,Avenir Next" font-style="italic" font-size="32.0" fill="#1077CA" transform="matrix(1.00, 0.00, -0.00, -1.00, 33.6, 65.7)">t</text><text xml:space="preserve" font-family="AvenirNext-Italic,Avenir Next" font-style="italic" font-size="32.0" fill="#1077CA" transform="matrix(1.00, 0.00, -0.00, -1.00, 43.4, 65.7)">p</text><text xml:space="preserve" font-family="AvenirNext-Italic,Avenir Next" font-style="italic" font-size="32.0" fill="#1077CA" transform="matrix(1.00, 0.00, -0.00, -1.00, 63.5, 65.7)">s</text><text xml:space="preserve" font-family="AvenirNext-Italic,Avenir Next" font-style="italic" font-size="32.0" fill="#1077CA" transform="matrix(1.00, 0.00, -0.00, -1.00, 77.7, 65.7)">:</text><text xml:space="preserve" font-family="AvenirNext-Italic,Avenir Next" font-style="italic" font-size="32.0" fill="#1077CA" transform="matrix(1.00, 0.00, -0.00, -1.00, 87.3, 65.7)">/</text><text xml:space="preserve" font-family="AvenirNext-Italic,Avenir Next" font-style="italic" font-size="32.0" fill="#1077CA" transform="matrix(1.00, 0.00, -0.00, -1.00, 99.2, 65.7)">/</text><text xml:space="preserve" font-family="AvenirNext-Italic,Avenir Next" font-style="italic" font-size="32.0" fill="#1077CA" transform="matrix(1.00, 0.00, -0.00, -1.00, 111.0, 65.7)">w</text><text xml:space="preserve" font-family="AvenirNext-Italic,Avenir Next" font-style="italic" font-size="32.0" fill="#1077CA" transform="matrix(1.00, 0.00, -0.00, -1.00, 134.5, 65.7)">w</text><text xml:space="preserve" font-family="AvenirNext-Italic,Avenir Next" font-style="italic" font-size="32.0" fill="#1077CA" transform="matrix(1.00, 0.00, -0.00, -1.00, 157.9, 65.7)">w</text><text xml:space="preserve" font-family="AvenirNext-Italic,Avenir Next" font-style="italic" font-size="32.0" fill="#1077CA" transform="matrix(1.00, 0.00, -0.00, -1.00, 180.4, 65.7)">.</text><text xml:space="preserve" font-family="AvenirNext-Italic,Avenir Next" font-style="italic" font-size="32.0" fill="#1077CA" transform="matrix(1.00, 0.00, -0.00, -1.00, 188.7, 65.7)">w</text><text xml:space="preserve" font-family="AvenirNext-Italic,Avenir Next" font-style="italic" font-size="32.0" fill="#1077CA" transform="matrix(1.00, 0.00, -0.00, -1.00, 212.2, 65.7)">e</text><text xml:space="preserve" font-family="AvenirNext-Italic,Avenir Next" font-style="italic" font-size="32.0" fill="#1077CA" transform="matrix(1.00, 0.00, -0.00, -1.00, 230.3, 65.7)">h</text><text xml:space="preserve" font-family="AvenirNext-Italic,Avenir Next" font-style="italic" font-size="32.0" fill="#1077CA" transform="matrix(1.00, 0.00, -0.00, -1.00, 248.8, 65.7)">e</text><text xml:space="preserve" font-family="AvenirNext-Italic,Avenir Next" font-style="italic" font-size="32.0" fill="#1077CA" transform="matrix(1.00, 0.00, -0.00, -1.00, 266.7, 65.7)">a</text><text xml:space="preserve" font-family="AvenirNext-Italic,Avenir Next" font-style="italic" font-size="32.0" fill="#1077CA" transform="matrix(1.00, 0.00, -0.00, -1.00, 283.8, 65.7)">r</text><text xml:space="preserve" font-family="AvenirNext-Italic,Avenir Next" font-style="italic" font-size="32.0" fill="#1077CA" transform="matrix(1.00, 0.00, -0.00, -1.00, 294.5, 65.7)">t</text><text xml:space="preserve" font-family="AvenirNext-Italic,Avenir Next" font-style="italic" font-size="32.0" fill="#1077CA" transform="matrix(1.00, 0.00, -0.00, -1.00, 304.4, 65.7)">s</text><text xml:space="preserve" font-family="AvenirNext-Italic,Avenir Next" font-style="italic" font-size="32.0" fill="#1077CA" transform="matrix(1.00, 0.00, -0.00, -1.00, 318.6, 65.7)">w</text><text xml:space="preserve" font-family="AvenirNext-Italic,Avenir Next" font-style="italic" font-size="32.0" fill="#1077CA" transform="matrix(1.00, 0.00, -0.00, -1.00, 342.0, 65.7)">i</text><text xml:space="preserve" font-family="AvenirNext-Italic,Avenir Next" font-style="italic" font-size="32.0" fill="#1077CA" transform="matrix(1.00, 0.00, -0.00, -1.00, 350.0, 65.7)">f</text><text xml:space="preserve" font-family="AvenirNext-Italic,Avenir Next" font-style="italic" font-size="32.0" fill="#1077CA" transform="matrix(1.00, 0.00, -0.00, -1.00, 359.1, 65.7)">t</text><text xml:space="preserve" font-family="AvenirNext-Italic,Avenir Next" font-style="italic" font-size="32.0" fill="#1077CA" transform="matrix(1.00, 0.00, -0.00, -1.00, 368.9, 65.7)">.</text><text xml:space="preserve" font-family="AvenirNext-Italic,Avenir Next" font-style="italic" font-size="32.0" fill="#1077CA" transform="matrix(1.00, 0.00, -0.00, -1.00, 377.2, 65.7)">c</text><text xml:space="preserve" font-family="AvenirNext-Italic,Avenir Next" font-style="italic" font-size="32.0" fill="#1077CA" transform="matrix(1.00, 0.00, -0.00, -1.00, 393.2, 65.7)">o</text><text xml:space="preserve" font-family="AvenirNext-Italic,Avenir Next" font-style="italic" font-size="32.0" fill="#1077CA" transform="matrix(1.00, 0.00, -0.00, -1.00, 412.3, 65.7)">m</text><text xml:space="preserve" font-family="AvenirNext-Italic,Avenir Next" font-style="italic" font-size="32.0" fill="#1077CA" transform="matrix(1.00, 0.00, -0.00, -1.00, 440.3, 65.7)">/</text><path d="M 4.5 38.7 L 450.7 38.7 " fill="none" stroke="#1077CA" stroke-width="1.60" transform="matrix(1.00, 0.00, 0.00, -1.00, 1.4, 102.0)"></path></g></g><g><clipPath id="clip0x600000abc080"><path d="M -5.5 -5.9 L 601.1 -5.9 L 601.1 59.9 L -5.5 59.9 Z M -5.5 -5.9 "></path></clipPath><g clip-path="url(#clip0x600000abc080)"><text xml:space="preserve" font-family="AvenirNext-Italic,Avenir Next" font-style="italic" font-size="32.0" fill="#1077CA" transform="matrix(1.00, 0.00, -0.00, -1.00, 5.9, 16.7)">h</text><text xml:space="preserve" font-family="AvenirNext-Italic,Avenir Next" font-style="italic" font-size="32.0" fill="#1077CA" transform="matrix(1.00, 0.00, -0.00, -1.00, 24.4, 16.7)">t</text><text xml:space="preserve" font-family="AvenirNext-Italic,Avenir Next" font-style="italic" font-size="32.0" fill="#1077CA" transform="matrix(1.00, 0.00, -0.00, -1.00, 33.6, 16.7)">t</text><text xml:space="preserve" font-family="AvenirNext-Italic,Avenir Next" font-style="italic" font-size="32.0" fill="#1077CA" transform="matrix(1.00, 0.00, -0.00, -1.00, 43.4, 16.7)">p</text><text xml:space="preserve" font-family="AvenirNext-Italic,Avenir Next" font-style="italic" font-size="32.0" fill="#1077CA" transform="matrix(1.00, 0.00, -0.00, -1.00, 63.5, 16.7)">s</text><text xml:space="preserve" font-family="AvenirNext-Italic,Avenir Next" font-style="italic" font-size="32.0" fill="#1077CA" transform="matrix(1.00, 0.00, -0.00, -1.00, 77.7, 16.7)">:</text><text xml:space="preserve" font-family="AvenirNext-Italic,Avenir Next" font-style="italic" font-size="32.0" fill="#1077CA" transform="matrix(1.00, 0.00, -0.00, -1.00, 87.3, 16.7)">/</text><text xml:space="preserve" font-family="AvenirNext-Italic,Avenir Next" font-style="italic" font-size="32.0" fill="#1077CA" transform="matrix(1.00, 0.00, -0.00, -1.00, 99.2, 16.7)">/</text><text xml:space="preserve" font-family="AvenirNext-Italic,Avenir Next" font-style="italic" font-size="32.0" fill="#1077CA" transform="matrix(1.00, 0.00, -0.00, -1.00, 111.0, 16.7)">m</text><text xml:space="preserve" font-family="AvenirNext-Italic,Avenir Next" font-style="italic" font-size="32.0" fill="#1077CA" transform="matrix(1.00, 0.00, -0.00, -1.00, 139.0, 16.7)">e</text><text xml:space="preserve" font-family="AvenirNext-Italic,Avenir Next" font-style="italic" font-size="32.0" fill="#1077CA" transform="matrix(1.00, 0.00, -0.00, -1.00, 157.1, 16.7)">d</text><text xml:space="preserve" font-family="AvenirNext-Italic,Avenir Next" font-style="italic" font-size="32.0" fill="#1077CA" transform="matrix(1.00, 0.00, -0.00, -1.00, 177.0, 16.7)">i</text><text xml:space="preserve" font-family="AvenirNext-Italic,Avenir Next" font-style="italic" font-size="32.0" fill="#1077CA" transform="matrix(1.00, 0.00, -0.00, -1.00, 185.0, 16.7)">u</text><text xml:space="preserve" font-family="AvenirNext-Italic,Avenir Next" font-style="italic" font-size="32.0" fill="#1077CA" transform="matrix(1.00, 0.00, -0.00, -1.00, 203.5, 16.7)">m</text><text xml:space="preserve" font-family="AvenirNext-Italic,Avenir Next" font-style="italic" font-size="32.0" fill="#1077CA" transform="matrix(1.00, 0.00, -0.00, -1.00, 231.4, 16.7)">.</text><text xml:space="preserve" font-family="AvenirNext-Italic,Avenir Next" font-style="italic" font-size="32.0" fill="#1077CA" transform="matrix(1.00, 0.00, -0.00, -1.00, 239.8, 16.7)">c</text><text xml:space="preserve" font-family="AvenirNext-Italic,Avenir Next" font-style="italic" font-size="32.0" fill="#1077CA" transform="matrix(1.00, 0.00, -0.00, -1.00, 255.8, 16.7)">o</text><text xml:space="preserve" font-family="AvenirNext-Italic,Avenir Next" font-style="italic" font-size="32.0" fill="#1077CA" transform="matrix(1.00, 0.00, -0.00, -1.00, 274.8, 16.7)">m</text><text xml:space="preserve" font-family="AvenirNext-Italic,Avenir Next" font-style="italic" font-size="32.0" fill="#1077CA" transform="matrix(1.00, 0.00, -0.00, -1.00, 302.8, 16.7)">/</text><text xml:space="preserve" font-family="AvenirNext-Italic,Avenir Next" font-style="italic" font-size="32.0" fill="#1077CA" transform="matrix(1.00, 0.00, -0.00, -1.00, 314.6, 16.7)">s</text><text xml:space="preserve" font-family="AvenirNext-Italic,Avenir Next" font-style="italic" font-size="32.0" fill="#1077CA" transform="matrix(1.00, 0.00, -0.00, -1.00, 328.8, 16.7)">w</text><text xml:space="preserve" font-family="AvenirNext-Italic,Avenir Next" font-style="italic" font-size="32.0" fill="#1077CA" transform="matrix(1.00, 0.00, -0.00, -1.00, 352.3, 16.7)">i</text><text xml:space="preserve" font-family="AvenirNext-Italic,Avenir Next" font-style="italic" font-size="32.0" fill="#1077CA" transform="matrix(1.00, 0.00, -0.00, -1.00, 360.3, 16.7)">f</text><text xml:space="preserve" font-family="AvenirNext-Italic,Avenir Next" font-style="italic" font-size="32.0" fill="#1077CA" transform="matrix(1.00, 0.00, -0.00, -1.00, 369.4, 16.7)">t</text><text xml:space="preserve" font-family="AvenirNext-Italic,Avenir Next" font-style="italic" font-size="32.0" fill="#1077CA" transform="matrix(1.00, 0.00, -0.00, -1.00, 379.2, 16.7)">-</text><text xml:space="preserve" font-family="AvenirNext-Italic,Avenir Next" font-style="italic" font-size="32.0" fill="#1077CA" transform="matrix(1.00, 0.00, -0.00, -1.00, 389.4, 16.7)">p</text><text xml:space="preserve" font-family="AvenirNext-Italic,Avenir Next" font-style="italic" font-size="32.0" fill="#1077CA" transform="matrix(1.00, 0.00, -0.00, -1.00, 409.5, 16.7)">r</text><text xml:space="preserve" font-family="AvenirNext-Italic,Avenir Next" font-style="italic" font-size="32.0" fill="#1077CA" transform="matrix(1.00, 0.00, -0.00, -1.00, 420.3, 16.7)">o</text><text xml:space="preserve" font-family="AvenirNext-Italic,Avenir Next" font-style="italic" font-size="32.0" fill="#1077CA" transform="matrix(1.00, 0.00, -0.00, -1.00, 439.3, 16.7)">g</text><text xml:space="preserve" font-family="AvenirNext-Italic,Avenir Next" font-style="italic" font-size="32.0" fill="#1077CA" transform="matrix(1.00, 0.00, -0.00, -1.00, 459.4, 16.7)">r</text><text xml:space="preserve" font-family="AvenirNext-Italic,Avenir Next" font-style="italic" font-size="32.0" fill="#1077CA" transform="matrix(1.00, 0.00, -0.00, -1.00, 470.2, 16.7)">a</text><text xml:space="preserve" font-family="AvenirNext-Italic,Avenir Next" font-style="italic" font-size="32.0" fill="#1077CA" transform="matrix(1.00, 0.00, -0.00, -1.00, 487.2, 16.7)">m</text><text xml:space="preserve" font-family="AvenirNext-Italic,Avenir Next" font-style="italic" font-size="32.0" fill="#1077CA" transform="matrix(1.00, 0.00, -0.00, -1.00, 515.2, 16.7)">m</text><text xml:space="preserve" font-family="AvenirNext-Italic,Avenir Next" font-style="italic" font-size="32.0" fill="#1077CA" transform="matrix(1.00, 0.00, -0.00, -1.00, 543.2, 16.7)">i</text><text xml:space="preserve" font-family="AvenirNext-Italic,Avenir Next" font-style="italic" font-size="32.0" fill="#1077CA" transform="matrix(1.00, 0.00, -0.00, -1.00, 551.2, 16.7)">n</text><text xml:space="preserve" font-family="AvenirNext-Italic,Avenir Next" font-style="italic" font-size="32.0" fill="#1077CA" transform="matrix(1.00, 0.00, -0.00, -1.00, 569.6, 16.7)">g</text><path d="M 4.5 38.7 L 588.3 38.7 " fill="none" stroke="#1077CA" stroke-width="1.60" transform="matrix(1.00, 0.00, 0.00, -1.00, 1.4, 53.0)"></path></g></g></g></svg>