<?xml version="1.0" encoding="UTF-8" standalone="no"?><svg xmlns="http://www.w3.org/2000/svg" xmlns:xlink="http://www.w3.org/1999/xlink" clip-rule="evenodd" stroke-miterlimit="10" viewBox="0 0 875 94"><desc>SVG generated by Keynote</desc><defs></defs><g transform="matrix(1.00, 0.00, -0.00, -1.00, 0.0, 94.0)"><g><clipPath id="clip0x6000008b7820"><path d="M -9.3 17.2 L 327.3 17.2 L 327.3 102.8 L -9.3 102.8 Z M -9.3 17.2 "></path></clipPath><g clip-path="url(#clip0x6000008b7820)"><text xml:space="preserve" font-family="AvenirNext-Regular,Avenir Next" font-size="42.0" fill="#514F4D" transform="matrix(1.00, 0.00, -0.00, -1.00, 5.5, 46.9)">L</text><text xml:space="preserve" font-family="AvenirNext-Regular,Avenir Next" font-size="42.0" fill="#514F4D" transform="matrix(1.00, 0.00, -0.00, -1.00, 26.9, 46.9)">L</text><text xml:space="preserve" font-family="AvenirNext-Regular,Avenir Next" font-size="42.0" fill="#514F4D" transform="matrix(1.00, 0.00, -0.00, -1.00, 46.1, 46.9)">V</text><text xml:space="preserve" font-family="AvenirNext-Regular,Avenir Next" font-size="42.0" fill="#514F4D" transform="matrix(1.00, 0.00, -0.00, -1.00, 72.3, 46.9)">M</text><text xml:space="preserve" font-family="AvenirNext-Regular,Avenir Next" font-size="42.0" fill="#514F4D" transform="matrix(1.00, 0.00, -0.00, -1.00, 109.5, 46.9)"> </text><text xml:space="preserve" font-family="AvenirNext-Regular,Avenir Next" font-size="42.0" fill="#514F4D" transform="matrix(1.00, 0.00, -0.00, -1.00, 120.0, 46.9)">b</text><text xml:space="preserve" font-family="AvenirNext-Regular,Avenir Next" font-size="42.0" fill="#514F4D" transform="matrix(1.00, 0.00, -0.00, -1.00, 146.7, 46.9)">y</text><text xml:space="preserve" font-family="AvenirNext-Regular,Avenir Next" font-size="42.0" fill="#514F4D" transform="matrix(1.00, 0.00, -0.00, -1.00, 167.2, 46.9)">t</text><text xml:space="preserve" font-family="AvenirNext-Regular,Avenir Next" font-size="42.0" fill="#514F4D" transform="matrix(1.00, 0.00, -0.00, -1.00, 180.5, 46.9)">e</text><text xml:space="preserve" font-family="AvenirNext-Regular,Avenir Next" font-size="42.0" fill="#514F4D" transform="matrix(1.00, 0.00, -0.00, -1.00, 204.6, 46.9)"> </text><text xml:space="preserve" font-family="AvenirNext-Regular,Avenir Next" font-size="42.0" fill="#514F4D" transform="matrix(1.00, 0.00, -0.00, -1.00, 215.1, 46.9)">c</text><text xml:space="preserve" font-family="AvenirNext-Regular,Avenir Next" font-size="42.0" fill="#514F4D" transform="matrix(1.00, 0.00, -0.00, -1.00, 236.1, 46.9)">o</text><text xml:space="preserve" font-family="AvenirNext-Regular,Avenir Next" font-size="42.0" fill="#514F4D" transform="matrix(1.00, 0.00, -0.00, -1.00, 261.7, 46.9)">d</text><text xml:space="preserve" font-family="AvenirNext-Regular,Avenir Next" font-size="42.0" fill="#514F4D" transform="matrix(1.00, 0.00, -0.00, -1.00, 288.5, 46.9)">e</text></g></g><g><clipPath id="clip0x6000008b80c0"><path d="M 1.0 0.6 L 874.5 0.6 L 874.5 26.5 L 1.0 26.5 Z M 1.0 0.6 "></path></clipPath><g clip-path="url(#clip0x6000008b80c0)"><image xlink:href="7BFA6DAB746C15C28985681F119C73B8.png" width="1684.00" height="50.00" transform="matrix(0.52, 0.00, -0.00, -0.52, 1.0, 26.5)"></image></g></g></g></svg>