<?xml version="1.0" encoding="UTF-8" standalone="no"?><svg xmlns="http://www.w3.org/2000/svg" xmlns:xlink="http://www.w3.org/1999/xlink" clip-rule="evenodd" stroke-miterlimit="10" viewBox="0 0 336 206"><desc>SVG generated by Keynote</desc><defs></defs><g transform="matrix(1.00, 0.00, -0.00, -1.00, 0.0, 206.0)"><text xml:space="preserve" font-family="AvenirNext-Regular,Avenir Next" font-size="42.0" fill="#514F4D" transform="matrix(1.00, 0.00, -0.00, -1.00, 1.0, 174.0)"> </text><text xml:space="preserve" font-family="AvenirNext-Regular,Avenir Next" font-size="42.0" fill="#514F4D" transform="matrix(1.00, 0.00, -0.00, -1.00, 11.5, 174.0)">O</text><text xml:space="preserve" font-family="AvenirNext-Regular,Avenir Next" font-size="42.0" fill="#514F4D" transform="matrix(1.00, 0.00, -0.00, -1.00, 47.2, 174.0)"> </text><text xml:space="preserve" font-family="AvenirNext-Regular,Avenir Next" font-size="42.0" fill="#514F4D" transform="matrix(1.00, 0.00, -0.00, -1.00, 57.7, 174.0)">=</text><text xml:space="preserve" font-family="AvenirNext-Regular,Avenir Next" font-size="42.0" fill="#514F4D" transform="matrix(1.00, 0.00, -0.00, -1.00, 85.7, 174.0)"> </text><text xml:space="preserve" font-family="AvenirNext-Regular,Avenir Next" font-size="42.0" fill="#514F4D" transform="matrix(1.00, 0.00, -0.00, -1.00, 96.2, 174.0)">o</text><text xml:space="preserve" font-family="AvenirNext-Regular,Avenir Next" font-size="42.0" fill="#514F4D" transform="matrix(1.00, 0.00, -0.00, -1.00, 121.8, 174.0)">p</text><text xml:space="preserve" font-family="AvenirNext-Regular,Avenir Next" font-size="42.0" fill="#514F4D" transform="matrix(1.00, 0.00, -0.00, -1.00, 148.5, 174.0)">t</text><text xml:space="preserve" font-family="AvenirNext-Regular,Avenir Next" font-size="42.0" fill="#514F4D" transform="matrix(1.00, 0.00, -0.00, -1.00, 161.8, 174.0)">i</text><text xml:space="preserve" font-family="AvenirNext-Regular,Avenir Next" font-size="42.0" fill="#514F4D" transform="matrix(1.00, 0.00, -0.00, -1.00, 172.3, 174.0)">m</text><text xml:space="preserve" font-family="AvenirNext-Regular,Avenir Next" font-size="42.0" fill="#514F4D" transform="matrix(1.00, 0.00, -0.00, -1.00, 209.4, 174.0)">i</text><text xml:space="preserve" font-family="AvenirNext-Regular,Avenir Next" font-size="42.0" fill="#514F4D" transform="matrix(1.00, 0.00, -0.00, -1.00, 219.9, 174.0)">z</text><text xml:space="preserve" font-family="AvenirNext-Regular,Avenir Next" font-size="42.0" fill="#514F4D" transform="matrix(1.00, 0.00, -0.00, -1.00, 238.5, 174.0)">a</text><text xml:space="preserve" font-family="AvenirNext-Regular,Avenir Next" font-size="42.0" fill="#514F4D" transform="matrix(1.00, 0.00, -0.00, -1.00, 260.5, 174.0)">t</text><text xml:space="preserve" font-family="AvenirNext-Regular,Avenir Next" font-size="42.0" fill="#514F4D" transform="matrix(1.00, 0.00, -0.00, -1.00, 273.8, 174.0)">i</text><text xml:space="preserve" font-family="AvenirNext-Regular,Avenir Next" font-size="42.0" fill="#514F4D" transform="matrix(1.00, 0.00, -0.00, -1.00, 284.3, 174.0)">o</text><text xml:space="preserve" font-family="AvenirNext-Regular,Avenir Next" font-size="42.0" fill="#514F4D" transform="matrix(1.00, 0.00, -0.00, -1.00, 310.0, 174.0)">n</text><text xml:space="preserve" font-family="AvenirNext-Regular,Avenir Next" font-size="42.0" fill="#514F4D" transform="matrix(1.00, 0.00, -0.00, -1.00, 334.4, 174.0)"> </text><text xml:space="preserve" font-family="AvenirNext-Regular,Avenir Next" font-size="42.0" fill="#514F4D" transform="matrix(1.00, 0.00, -0.00, -1.00, 1.0, 117.0)"> </text><text xml:space="preserve" font-family="AvenirNext-Regular,Avenir Next" font-size="42.0" fill="#514F4D" transform="matrix(1.00, 0.00, -0.00, -1.00, 11.5, 117.0)">O</text><text xml:space="preserve" font-family="AvenirNext-Regular,Avenir Next" font-size="42.0" fill="#514F4D" transform="matrix(1.00, 0.00, -0.00, -1.00, 47.2, 117.0)"> </text><text xml:space="preserve" font-family="AvenirNext-Regular,Avenir Next" font-size="42.0" fill="#514F4D" transform="matrix(1.00, 0.00, -0.00, -1.00, 1.0, 60.0)"> </text><text xml:space="preserve" font-family="AvenirNext-Regular,Avenir Next" font-size="42.0" fill="#514F4D" transform="matrix(1.00, 0.00, -0.00, -1.00, 11.5, 60.0)">O</text><text xml:space="preserve" font-family="AvenirNext-Regular,Avenir Next" font-size="42.0" fill="#514F4D" transform="matrix(1.00, 0.00, -0.00, -1.00, 47.2, 60.0)">n</text><text xml:space="preserve" font-family="AvenirNext-Regular,Avenir Next" font-size="42.0" fill="#514F4D" transform="matrix(1.00, 0.00, -0.00, -1.00, 71.6, 60.0)">o</text><text xml:space="preserve" font-family="AvenirNext-Regular,Avenir Next" font-size="42.0" fill="#514F4D" transform="matrix(1.00, 0.00, -0.00, -1.00, 97.3, 60.0)">n</text><text xml:space="preserve" font-family="AvenirNext-Regular,Avenir Next" font-size="42.0" fill="#514F4D" transform="matrix(1.00, 0.00, -0.00, -1.00, 121.7, 60.0)">e</text><text xml:space="preserve" font-family="AvenirNext-Regular,Avenir Next" font-size="42.0" fill="#514F4D" transform="matrix(1.00, 0.00, -0.00, -1.00, 145.7, 60.0)"> </text><text xml:space="preserve" font-family="AvenirNext-Regular,Avenir Next" font-size="42.0" fill="#514F4D" transform="matrix(1.00, 0.00, -0.00, -1.00, 1.0, 3.0)"> </text><text xml:space="preserve" font-family="AvenirNext-Regular,Avenir Next" font-size="42.0" fill="#514F4D" transform="matrix(1.00, 0.00, -0.00, -1.00, 11.5, 3.0)">O</text><text xml:space="preserve" font-family="AvenirNext-Regular,Avenir Next" font-size="42.0" fill="#514F4D" transform="matrix(1.00, 0.00, -0.00, -1.00, 47.2, 3.0)">u</text><text xml:space="preserve" font-family="AvenirNext-Regular,Avenir Next" font-size="42.0" fill="#514F4D" transform="matrix(1.00, 0.00, -0.00, -1.00, 71.6, 3.0)">n</text><text xml:space="preserve" font-family="AvenirNext-Regular,Avenir Next" font-size="42.0" fill="#514F4D" transform="matrix(1.00, 0.00, -0.00, -1.00, 96.0, 3.0)">c</text><text xml:space="preserve" font-family="AvenirNext-Regular,Avenir Next" font-size="42.0" fill="#514F4D" transform="matrix(1.00, 0.00, -0.00, -1.00, 117.0, 3.0)">h</text><text xml:space="preserve" font-family="AvenirNext-Regular,Avenir Next" font-size="42.0" fill="#514F4D" transform="matrix(1.00, 0.00, -0.00, -1.00, 141.5, 3.0)">e</text><text xml:space="preserve" font-family="AvenirNext-Regular,Avenir Next" font-size="42.0" fill="#514F4D" transform="matrix(1.00, 0.00, -0.00, -1.00, 165.5, 3.0)">c</text><text xml:space="preserve" font-family="AvenirNext-Regular,Avenir Next" font-size="42.0" fill="#514F4D" transform="matrix(1.00, 0.00, -0.00, -1.00, 186.5, 3.0)">k</text><text xml:space="preserve" font-family="AvenirNext-Regular,Avenir Next" font-size="42.0" fill="#514F4D" transform="matrix(1.00, 0.00, -0.00, -1.00, 207.2, 3.0)">e</text><text xml:space="preserve" font-family="AvenirNext-Regular,Avenir Next" font-size="42.0" fill="#514F4D" transform="matrix(1.00, 0.00, -0.00, -1.00, 231.2, 3.0)">d</text></g></svg>