<?xml version="1.0" encoding="UTF-8" standalone="no"?><svg xmlns="http://www.w3.org/2000/svg" xmlns:xlink="http://www.w3.org/1999/xlink" clip-rule="evenodd" stroke-miterlimit="10" viewBox="0 0 1024 768"><desc>SVG generated by Keynote</desc><defs></defs><g transform="matrix(1.00, 0.00, -0.00, -1.00, 0.0, 768.0)"><path d="M 0.0 768.0 L 1024.0 768.0 L 1024.0 0.0 L 0.0 0.0 Z M 0.0 768.0 " fill="#F1F1F1"></path><text xml:space="preserve" font-family="AvenirNext-UltraLight,Avenir Next" font-size="72.0" fill="#514F4D" transform="matrix(1.00, 0.00, -0.00, -1.00, 315.7, 665.4)">P</text><text xml:space="preserve" font-family="AvenirNext-UltraLight,Avenir Next" font-size="72.0" fill="#514F4D" transform="matrix(1.00, 0.00, -0.00, -1.00, 356.9, 665.4)">l</text><text xml:space="preserve" font-family="AvenirNext-UltraLight,Avenir Next" font-size="72.0" fill="#514F4D" transform="matrix(1.00, 0.00, -0.00, -1.00, 373.1, 665.4)">a</text><text xml:space="preserve" font-family="AvenirNext-UltraLight,Avenir Next" font-size="72.0" fill="#514F4D" transform="matrix(1.00, 0.00, -0.00, -1.00, 410.0, 665.4)">y</text><text xml:space="preserve" font-family="AvenirNext-UltraLight,Avenir Next" font-size="72.0" fill="#514F4D" transform="matrix(1.00, 0.00, -0.00, -1.00, 440.8, 665.4)">g</text><text xml:space="preserve" font-family="AvenirNext-UltraLight,Avenir Next" font-size="72.0" fill="#514F4D" transform="matrix(1.00, 0.00, -0.00, -1.00, 485.9, 665.4)">r</text><text xml:space="preserve" font-family="AvenirNext-UltraLight,Avenir Next" font-size="72.0" fill="#514F4D" transform="matrix(1.00, 0.00, -0.00, -1.00, 507.4, 665.4)">o</text><text xml:space="preserve" font-family="AvenirNext-UltraLight,Avenir Next" font-size="72.0" fill="#514F4D" transform="matrix(1.00, 0.00, -0.00, -1.00, 551.0, 665.4)">u</text><text xml:space="preserve" font-family="AvenirNext-UltraLight,Avenir Next" font-size="72.0" fill="#514F4D" transform="matrix(1.00, 0.00, -0.00, -1.00, 592.2, 665.4)">n</text><text xml:space="preserve" font-family="AvenirNext-UltraLight,Avenir Next" font-size="72.0" fill="#514F4D" transform="matrix(1.00, 0.00, -0.00, -1.00, 633.4, 665.4)">d</text><text xml:space="preserve" font-family="AvenirNext-UltraLight,Avenir Next" font-size="72.0" fill="#514F4D" transform="matrix(1.00, 0.00, -0.00, -1.00, 678.4, 665.4)">s</text><g><clipPath id="clip0x6080006b5300"><path d="M 96.7 556.2 L 222.1 556.2 L 222.1 641.8 L 96.7 641.8 Z M 96.7 556.2 "></path></clipPath><g clip-path="url(#clip0x6080006b5300)"><text xml:space="preserve" font-family="AvenirNext-Regular,Avenir Next" font-size="42.0" fill="#514F4D" transform="matrix(1.00, 0.00, -0.00, -1.00, 111.5, 585.9)">R</text><text xml:space="preserve" font-family="AvenirNext-Regular,Avenir Next" font-size="42.0" fill="#514F4D" transform="matrix(1.00, 0.00, -0.00, -1.00, 136.7, 585.9)">E</text><text xml:space="preserve" font-family="AvenirNext-Regular,Avenir Next" font-size="42.0" fill="#514F4D" transform="matrix(1.00, 0.00, -0.00, -1.00, 161.5, 585.9)">P</text><text xml:space="preserve" font-family="AvenirNext-Regular,Avenir Next" font-size="42.0" fill="#514F4D" transform="matrix(1.00, 0.00, -0.00, -1.00, 185.9, 585.9)">L</text></g></g><g><clipPath id="clip0x6080006b5660"><path d="M 107.4 422.8 L 727.4 422.8 L 727.4 567.0 L 107.4 567.0 Z M 107.4 422.8 "></path></clipPath><g clip-path="url(#clip0x6080006b5660)"><image xlink:href="../../0DDDEAF1-8D02-4622-A695-0DDD95EB7C39/assets/16276FEE9630627B4E140D86D5D44B2F.png" width="860.00" height="200.00" transform="matrix(0.72, 0.00, -0.00, -0.72, 107.4, 567.0)"></image></g></g><g><clipPath id="clip0x6080006b5900"><path d="M 96.7 309.2 L 433.3 309.2 L 433.3 394.8 L 96.7 394.8 Z M 96.7 309.2 "></path></clipPath><g clip-path="url(#clip0x6080006b5900)"><text xml:space="preserve" font-family="AvenirNext-Regular,Avenir Next" font-size="42.0" fill="#514F4D" transform="matrix(1.00, 0.00, -0.00, -1.00, 111.5, 338.9)">L</text><text xml:space="preserve" font-family="AvenirNext-Regular,Avenir Next" font-size="42.0" fill="#514F4D" transform="matrix(1.00, 0.00, -0.00, -1.00, 132.9, 338.9)">L</text><text xml:space="preserve" font-family="AvenirNext-Regular,Avenir Next" font-size="42.0" fill="#514F4D" transform="matrix(1.00, 0.00, -0.00, -1.00, 152.1, 338.9)">V</text><text xml:space="preserve" font-family="AvenirNext-Regular,Avenir Next" font-size="42.0" fill="#514F4D" transform="matrix(1.00, 0.00, -0.00, -1.00, 178.3, 338.9)">M</text><text xml:space="preserve" font-family="AvenirNext-Regular,Avenir Next" font-size="42.0" fill="#514F4D" transform="matrix(1.00, 0.00, -0.00, -1.00, 215.5, 338.9)"> </text><text xml:space="preserve" font-family="AvenirNext-Regular,Avenir Next" font-size="42.0" fill="#514F4D" transform="matrix(1.00, 0.00, -0.00, -1.00, 226.0, 338.9)">b</text><text xml:space="preserve" font-family="AvenirNext-Regular,Avenir Next" font-size="42.0" fill="#514F4D" transform="matrix(1.00, 0.00, -0.00, -1.00, 252.7, 338.9)">y</text><text xml:space="preserve" font-family="AvenirNext-Regular,Avenir Next" font-size="42.0" fill="#514F4D" transform="matrix(1.00, 0.00, -0.00, -1.00, 273.2, 338.9)">t</text><text xml:space="preserve" font-family="AvenirNext-Regular,Avenir Next" font-size="42.0" fill="#514F4D" transform="matrix(1.00, 0.00, -0.00, -1.00, 286.5, 338.9)">e</text><text xml:space="preserve" font-family="AvenirNext-Regular,Avenir Next" font-size="42.0" fill="#514F4D" transform="matrix(1.00, 0.00, -0.00, -1.00, 310.6, 338.9)"> </text><text xml:space="preserve" font-family="AvenirNext-Regular,Avenir Next" font-size="42.0" fill="#514F4D" transform="matrix(1.00, 0.00, -0.00, -1.00, 321.1, 338.9)">c</text><text xml:space="preserve" font-family="AvenirNext-Regular,Avenir Next" font-size="42.0" fill="#514F4D" transform="matrix(1.00, 0.00, -0.00, -1.00, 342.1, 338.9)">o</text><text xml:space="preserve" font-family="AvenirNext-Regular,Avenir Next" font-size="42.0" fill="#514F4D" transform="matrix(1.00, 0.00, -0.00, -1.00, 367.7, 338.9)">d</text><text xml:space="preserve" font-family="AvenirNext-Regular,Avenir Next" font-size="42.0" fill="#514F4D" transform="matrix(1.00, 0.00, -0.00, -1.00, 394.5, 338.9)">e</text></g></g><g><clipPath id="clip0x6080006b6020"><path d="M 107.0 292.6 L 980.5 292.6 L 980.5 318.5 L 107.0 318.5 Z M 107.0 292.6 "></path></clipPath><g clip-path="url(#clip0x6080006b6020)"><image xlink:href="../../0DDDEAF1-8D02-4622-A695-0DDD95EB7C39/assets/7BFA6DAB746C15C28985681F119C73B8.png" width="1684.00" height="50.00" transform="matrix(0.52, 0.00, -0.00, -0.52, 107.0, 318.5)"></image></g></g><text xml:space="preserve" font-family="AvenirNext-Regular,Avenir Next" font-size="42.0" fill="#514F4D" transform="matrix(1.00, 0.00, -0.00, -1.00, 111.0, 246.0)"> </text><text xml:space="preserve" font-family="AvenirNext-Regular,Avenir Next" font-size="42.0" fill="#514F4D" transform="matrix(1.00, 0.00, -0.00, -1.00, 121.5, 246.0)">O</text><text xml:space="preserve" font-family="AvenirNext-Regular,Avenir Next" font-size="42.0" fill="#514F4D" transform="matrix(1.00, 0.00, -0.00, -1.00, 157.2, 246.0)"> </text><text xml:space="preserve" font-family="AvenirNext-Regular,Avenir Next" font-size="42.0" fill="#514F4D" transform="matrix(1.00, 0.00, -0.00, -1.00, 167.7, 246.0)">=</text><text xml:space="preserve" font-family="AvenirNext-Regular,Avenir Next" font-size="42.0" fill="#514F4D" transform="matrix(1.00, 0.00, -0.00, -1.00, 195.7, 246.0)"> </text><text xml:space="preserve" font-family="AvenirNext-Regular,Avenir Next" font-size="42.0" fill="#514F4D" transform="matrix(1.00, 0.00, -0.00, -1.00, 206.2, 246.0)">o</text><text xml:space="preserve" font-family="AvenirNext-Regular,Avenir Next" font-size="42.0" fill="#514F4D" transform="matrix(1.00, 0.00, -0.00, -1.00, 231.8, 246.0)">p</text><text xml:space="preserve" font-family="AvenirNext-Regular,Avenir Next" font-size="42.0" fill="#514F4D" transform="matrix(1.00, 0.00, -0.00, -1.00, 258.5, 246.0)">t</text><text xml:space="preserve" font-family="AvenirNext-Regular,Avenir Next" font-size="42.0" fill="#514F4D" transform="matrix(1.00, 0.00, -0.00, -1.00, 271.8, 246.0)">i</text><text xml:space="preserve" font-family="AvenirNext-Regular,Avenir Next" font-size="42.0" fill="#514F4D" transform="matrix(1.00, 0.00, -0.00, -1.00, 282.3, 246.0)">m</text><text xml:space="preserve" font-family="AvenirNext-Regular,Avenir Next" font-size="42.0" fill="#514F4D" transform="matrix(1.00, 0.00, -0.00, -1.00, 319.4, 246.0)">i</text><text xml:space="preserve" font-family="AvenirNext-Regular,Avenir Next" font-size="42.0" fill="#514F4D" transform="matrix(1.00, 0.00, -0.00, -1.00, 329.9, 246.0)">z</text><text xml:space="preserve" font-family="AvenirNext-Regular,Avenir Next" font-size="42.0" fill="#514F4D" transform="matrix(1.00, 0.00, -0.00, -1.00, 348.5, 246.0)">a</text><text xml:space="preserve" font-family="AvenirNext-Regular,Avenir Next" font-size="42.0" fill="#514F4D" transform="matrix(1.00, 0.00, -0.00, -1.00, 370.5, 246.0)">t</text><text xml:space="preserve" font-family="AvenirNext-Regular,Avenir Next" font-size="42.0" fill="#514F4D" transform="matrix(1.00, 0.00, -0.00, -1.00, 383.8, 246.0)">i</text><text xml:space="preserve" font-family="AvenirNext-Regular,Avenir Next" font-size="42.0" fill="#514F4D" transform="matrix(1.00, 0.00, -0.00, -1.00, 394.3, 246.0)">o</text><text xml:space="preserve" font-family="AvenirNext-Regular,Avenir Next" font-size="42.0" fill="#514F4D" transform="matrix(1.00, 0.00, -0.00, -1.00, 420.0, 246.0)">n</text><text xml:space="preserve" font-family="AvenirNext-Regular,Avenir Next" font-size="42.0" fill="#514F4D" transform="matrix(1.00, 0.00, -0.00, -1.00, 444.4, 246.0)"> </text><text xml:space="preserve" font-family="AvenirNext-Regular,Avenir Next" font-size="42.0" fill="#514F4D" transform="matrix(1.00, 0.00, -0.00, -1.00, 111.0, 189.0)"> </text><text xml:space="preserve" font-family="AvenirNext-Regular,Avenir Next" font-size="42.0" fill="#514F4D" transform="matrix(1.00, 0.00, -0.00, -1.00, 121.5, 189.0)">O</text><text xml:space="preserve" font-family="AvenirNext-Regular,Avenir Next" font-size="42.0" fill="#514F4D" transform="matrix(1.00, 0.00, -0.00, -1.00, 157.2, 189.0)"> </text><text xml:space="preserve" font-family="AvenirNext-Regular,Avenir Next" font-size="42.0" fill="#514F4D" transform="matrix(1.00, 0.00, -0.00, -1.00, 111.0, 132.0)"> </text><text xml:space="preserve" font-family="AvenirNext-Regular,Avenir Next" font-size="42.0" fill="#514F4D" transform="matrix(1.00, 0.00, -0.00, -1.00, 121.5, 132.0)">O</text><text xml:space="preserve" font-family="AvenirNext-Regular,Avenir Next" font-size="42.0" fill="#514F4D" transform="matrix(1.00, 0.00, -0.00, -1.00, 157.2, 132.0)">n</text><text xml:space="preserve" font-family="AvenirNext-Regular,Avenir Next" font-size="42.0" fill="#514F4D" transform="matrix(1.00, 0.00, -0.00, -1.00, 181.6, 132.0)">o</text><text xml:space="preserve" font-family="AvenirNext-Regular,Avenir Next" font-size="42.0" fill="#514F4D" transform="matrix(1.00, 0.00, -0.00, -1.00, 207.3, 132.0)">n</text><text xml:space="preserve" font-family="AvenirNext-Regular,Avenir Next" font-size="42.0" fill="#514F4D" transform="matrix(1.00, 0.00, -0.00, -1.00, 231.7, 132.0)">e</text><text xml:space="preserve" font-family="AvenirNext-Regular,Avenir Next" font-size="42.0" fill="#514F4D" transform="matrix(1.00, 0.00, -0.00, -1.00, 255.7, 132.0)"> </text><text xml:space="preserve" font-family="AvenirNext-Regular,Avenir Next" font-size="42.0" fill="#514F4D" transform="matrix(1.00, 0.00, -0.00, -1.00, 111.0, 75.0)"> </text><text xml:space="preserve" font-family="AvenirNext-Regular,Avenir Next" font-size="42.0" fill="#514F4D" transform="matrix(1.00, 0.00, -0.00, -1.00, 121.5, 75.0)">O</text><text xml:space="preserve" font-family="AvenirNext-Regular,Avenir Next" font-size="42.0" fill="#514F4D" transform="matrix(1.00, 0.00, -0.00, -1.00, 157.2, 75.0)">u</text><text xml:space="preserve" font-family="AvenirNext-Regular,Avenir Next" font-size="42.0" fill="#514F4D" transform="matrix(1.00, 0.00, -0.00, -1.00, 181.6, 75.0)">n</text><text xml:space="preserve" font-family="AvenirNext-Regular,Avenir Next" font-size="42.0" fill="#514F4D" transform="matrix(1.00, 0.00, -0.00, -1.00, 206.0, 75.0)">c</text><text xml:space="preserve" font-family="AvenirNext-Regular,Avenir Next" font-size="42.0" fill="#514F4D" transform="matrix(1.00, 0.00, -0.00, -1.00, 227.0, 75.0)">h</text><text xml:space="preserve" font-family="AvenirNext-Regular,Avenir Next" font-size="42.0" fill="#514F4D" transform="matrix(1.00, 0.00, -0.00, -1.00, 251.5, 75.0)">e</text><text xml:space="preserve" font-family="AvenirNext-Regular,Avenir Next" font-size="42.0" fill="#514F4D" transform="matrix(1.00, 0.00, -0.00, -1.00, 275.5, 75.0)">c</text><text xml:space="preserve" font-family="AvenirNext-Regular,Avenir Next" font-size="42.0" fill="#514F4D" transform="matrix(1.00, 0.00, -0.00, -1.00, 296.5, 75.0)">k</text><text xml:space="preserve" font-family="AvenirNext-Regular,Avenir Next" font-size="42.0" fill="#514F4D" transform="matrix(1.00, 0.00, -0.00, -1.00, 317.2, 75.0)">e</text><text xml:space="preserve" font-family="AvenirNext-Regular,Avenir Next" font-size="42.0" fill="#514F4D" transform="matrix(1.00, 0.00, -0.00, -1.00, 341.2, 75.0)">d</text></g></svg>